<svg width="24" height="24" viewBox="0 0 24 24" fill="none" xmlns="http://www.w3.org/2000/svg">
<g clip-path="url(#clip0_19318_571736)">
<path d="M22.4811 22.9497C21.8269 22.9497 21.4225 22.4383 21.4225 21.8126C21.4225 21.1425 21.8854 20.6754 22.4811 20.6754C23.0711 20.6754 23.5326 21.1425 23.5326 21.8126C23.5326 22.484 23.0711 22.9497 22.4811 22.9497ZM22.4811 20.5469C21.8111 20.5469 21.2383 21.0511 21.2383 21.8126C21.2383 22.5326 21.7554 23.074 22.4811 23.074C23.1425 23.074 23.7183 22.5726 23.7183 21.8126C23.7183 21.0511 23.1425 20.5469 22.4811 20.5469Z" fill="#072F54"/>
<path d="M22.1856 21.7082V21.2467H22.497C22.6542 21.2467 22.8399 21.2711 22.8399 21.4625C22.8399 21.6896 22.6685 21.7082 22.4728 21.7082H22.1856ZM23.0699 21.4924C23.0699 21.1911 22.8842 21.0625 22.5242 21.0625H21.957V22.5582H22.2042V21.9182H22.4328L22.8199 22.5582H23.0985L22.6785 21.901C22.9056 21.8739 23.0699 21.7639 23.0699 21.4924Z" fill="#072F54"/>
<path d="M13.9424 9.15443L13.4624 7.79586L9.39094 2.35443L10.1224 2.173L17.1424 8.24157L21.2738 7.06014C21.7595 6.93443 22.311 6.90728 22.731 6.91014C21.4323 4.11014 19.0567 1.81157 15.9195 0.69443C9.71808 -1.51557 2.89951 1.72443 0.693796 7.92871C0.0109393 9.84728 -0.151917 11.8273 0.135226 13.7102L10.0324 10.2716L13.9424 9.15443Z" fill="#072F54"/>
<path d="M23.1675 7.98438C22.8047 8.22009 22.2718 8.52866 21.7432 8.69866L17.6032 9.88009L14.8403 18.7487L14.1232 18.9815L14.706 12.2087L14.3803 10.8015L10.5004 11.9087L0.246094 14.323C1.05752 18.2701 3.85181 21.7072 7.92467 23.1586C14.1275 25.3687 20.9432 22.1272 23.1489 15.9272C24.1003 13.2544 24.039 10.4658 23.1675 7.98438Z" fill="#072F54"/>
<path d="M14.3795 10.8004L14.7067 12.2062L14.1224 18.979L14.8395 18.7462L17.6024 9.87902L21.7424 8.69759C22.271 8.52759 22.8039 8.21616 23.1667 7.9833C23.0395 7.61902 22.8938 7.26045 22.7325 6.91045C22.3125 6.90759 21.761 6.93616 21.2753 7.05902L17.1439 8.2433L10.1224 2.17188L9.39243 2.35473L13.4624 7.79616L13.9439 9.1533L10.0324 10.2733L0.136719 13.709C0.168147 13.9147 0.203863 14.119 0.245291 14.3218L10.501 11.9075L14.3795 10.8004Z" fill="#FBC108"/>
</g>
<defs>
<clipPath id="clip0_19318_571736">
<rect width="24" height="24" fill="white"/>
</clipPath>
</defs>
</svg>
