<svg width="24" height="24" viewBox="0 0 24 24" fill="none" xmlns="http://www.w3.org/2000/svg">
<path d="M15.9135 0.6705C14.6715 0.2355 13.338 0 11.9475 0C10.863 0 9.8115 0.144 8.8125 0.414C5.6505 1.2675 2.49 3.8595 1.6485 7.113C1.2735 8.5605 1.323 10.0665 2.0685 11.388C2.2065 11.634 2.361 11.8695 2.532 12.0945C2.727 12.3555 2.9445 12.6015 3.18 12.828C3.519 13.1565 3.897 13.4475 4.311 13.6965C5.7375 14.5515 7.413 14.802 9.027 14.397C10.9755 13.911 12.54 12.5355 13.2855 10.713H10.0425C9.9 10.713 9.786 10.5975 9.786 10.455V8.304C9.786 8.1615 9.9 8.046 10.0425 8.046H17.7C17.8425 8.046 17.958 8.1615 17.958 8.304V16.41C17.958 16.5525 17.8425 16.668 17.7 16.668H15.5505C15.408 16.668 15.2925 16.5525 15.2925 16.41V12.681C14.1135 14.8035 12.102 16.3785 9.672 16.9845C8.9535 17.1645 8.2245 17.253 7.5015 17.253C5.9085 17.253 4.3395 16.8225 2.9385 15.981C2.3355 15.6195 1.785 15.1935 1.2945 14.7135C1.23 14.652 1.167 14.5875 1.1055 14.523C0.69 14.0925 0.3195 13.623 0 13.1175C0.564 19.221 5.697 24 11.9475 24C18.576 24 23.9475 18.627 23.9475 12C23.9475 6.762 20.592 2.307 15.9135 0.6705Z" fill="#417E62"/>
</svg>
