<svg width="24" height="24" viewBox="0 0 24 24" fill="none" xmlns="http://www.w3.org/2000/svg">
<g clip-path="url(#clip0_19318_232975)">
<path d="M14.2079 4.73277C14.1808 5.85621 13.4194 7.45711 12.1415 7.45711C11.3529 7.45711 10.7004 6.78304 10.7004 5.96855V5.94047C10.6732 4.62043 10.1023 3.4689 9.20495 2.65441C8.5252 2.06461 7.68229 1.67141 6.75781 1.55906C7.54633 0.716485 8.66114 0.210938 9.8847 0.210938C11.4345 0.210938 12.8484 1.13777 13.6641 2.4859C14.0448 3.15997 14.2352 3.97446 14.2079 4.73277Z" fill="#175FFF"/>
<path d="M9.15205 4.85078C9.83177 5.74954 10.2397 7.46278 9.26085 8.30535C8.63543 8.83899 7.73816 8.75473 7.22154 8.13684C6.37864 7.15383 5.20945 6.64829 4.04026 6.6202C3.14299 6.59211 2.2457 6.87298 1.48438 7.4066C1.56595 6.25508 2.08257 5.10356 3.03422 4.28907C4.25779 3.24989 5.97078 2.94094 7.43906 3.55883C8.11881 3.8116 8.71701 4.26098 9.15205 4.85078Z" fill="#175FFF"/>
<path d="M5.34443 8.27187C6.40486 8.49656 7.81875 9.56383 7.60123 10.8558C7.46528 11.6703 6.70395 12.2039 5.91542 12.0635H5.88824C4.63748 11.8669 3.41391 12.2601 2.51664 13.0184C1.83687 13.5801 1.29307 14.3947 1.04835 15.3214C0.395786 14.3665 0.096692 13.1589 0.287025 11.895C0.586118 10.294 1.70092 8.94594 3.22358 8.4123C3.90334 8.18761 4.66467 8.13144 5.34443 8.27187Z" fill="#175FFF"/>
<path d="M4.55417 13.445C5.50584 12.9114 7.24601 12.799 7.8714 13.9225C8.27925 14.6247 8.03453 15.5514 7.35478 15.9728C6.26716 16.6468 5.5874 17.7422 5.34269 18.9498C5.17955 19.8486 5.26112 20.8035 5.66897 21.6742C4.58136 21.3933 3.57531 20.6632 2.97713 19.5678C2.18861 18.1354 2.2158 16.366 3.03151 14.9617C3.41218 14.3157 3.9288 13.7821 4.55417 13.445Z" fill="#175FFF"/>
<path d="M7.16592 17.9049C7.57378 16.8657 8.82453 15.6299 9.99373 16.0793C10.7551 16.3602 11.1358 17.2308 10.8638 17.9892C10.4559 19.2249 10.6191 20.5169 11.1901 21.5842C11.6252 22.3987 12.2777 23.0447 13.1207 23.4659C12.0874 23.9715 10.891 24.0839 9.74902 23.6345C8.25354 23.0727 7.16592 21.6965 6.92121 20.0675C6.83964 19.3373 6.92121 18.5789 7.16592 17.9049Z" fill="#175FFF"/>
<path d="M11.952 19.5953C11.5986 18.5281 11.7889 16.7586 12.9852 16.3092C13.7466 16.0284 14.5623 16.4216 14.8342 17.208C15.2964 18.4157 16.2209 19.3145 17.3357 19.7639C18.1514 20.1008 19.1031 20.157 20.0003 19.9323C19.5381 20.9996 18.668 21.8703 17.526 22.3197C16.0305 22.8814 14.3176 22.5443 13.1484 21.449C12.6046 20.9154 12.1696 20.2974 11.952 19.5953Z" fill="#175FFF"/>
<path d="M16.6814 17.7132C15.757 17.1234 14.7781 15.6348 15.4307 14.5114C15.8386 13.8092 16.7087 13.5565 17.4155 13.9497C18.5303 14.5675 19.7811 14.6518 20.9231 14.2586C21.766 13.9497 22.5274 13.3879 23.0711 12.6016C23.3702 13.725 23.2615 14.9608 22.6361 16.0561C21.8476 17.4884 20.3249 18.3592 18.7479 18.303C17.9866 18.303 17.2524 18.1064 16.6814 17.7132Z" fill="#175FFF"/>
<path d="M19.1295 13.1356C18.0418 13.3042 16.3832 12.7985 16.1657 11.5067C16.0025 10.7202 16.5463 9.93381 17.3349 9.79337H17.362C18.6128 9.54063 19.6189 8.75422 20.217 7.71504C20.6793 6.92863 20.8968 6.0018 20.8153 5.04688C21.7397 5.69285 22.4466 6.73203 22.637 7.96781C22.9089 9.56872 22.2835 11.2539 21.06 12.265C20.489 12.7144 19.8092 13.0514 19.1295 13.1356Z" fill="#175FFF"/>
<path d="M18.1516 8.02015C17.4174 8.86273 15.8404 9.59296 14.8615 8.75038C14.2361 8.21676 14.1545 7.28992 14.6712 6.64394C15.4597 5.63285 15.7588 4.34089 15.5684 3.1332C15.4325 2.23445 15.0246 1.36379 14.3721 0.661635C15.4869 0.549291 16.6561 0.886322 17.6078 1.70081C18.8313 2.74 19.4023 4.45324 19.076 6.05414C18.94 6.78437 18.6137 7.48652 18.1516 8.02015Z" fill="#175FFF"/>
</g>
<defs>
<clipPath id="clip0_19318_232975">
<rect width="24" height="24" fill="white"/>
</clipPath>
</defs>
</svg>
