<svg width="24" height="24" viewBox="0 0 24 24" fill="none" xmlns="http://www.w3.org/2000/svg">
<g clip-path="url(#clip0_19318_454163)">
<path d="M12 24C18.6274 24 24 18.6274 24 12C24 5.37258 18.6274 0 12 0C5.37258 0 0 5.37258 0 12C0 18.6274 5.37258 24 12 24Z" fill="url(#paint0_linear_19318_454163)"/>
<g filter="url(#filter0_i_19318_454163)">
<path d="M7.76999 7.76155C7.76999 10.7215 7.76999 11.4137 7.76999 11.4137C7.52438 11.4137 6.50657 11.079 6.14671 10.8499C5.17285 10.2294 4.50884 9.09994 4.44025 7.94761C4.34154 6.2883 5.33504 4.71807 7.76999 4.10938V7.76155Z" fill="url(#paint1_linear_19318_454163)"/>
<path d="M11.7268 7.76155V11.4137H10.0528H8.37891V9.35246C8.37891 6.69368 8.8861 5.88474 9.79921 5.07314C10.7123 4.26155 11.7268 4.10938 11.7268 4.10938V7.76155Z" fill="url(#paint2_linear_19318_454163)"/>
<path fill-rule="evenodd" clip-rule="evenodd" d="M17.0585 4.28093C18.941 4.91662 20.024 6.89273 19.4921 8.72208C18.5361 12.0103 14.099 12.354 12.6813 9.24943C11.7631 7.23871 12.7541 5.07407 14.9658 4.25923C15.4747 4.07184 16.4696 4.0821 17.0585 4.28093ZM15.7051 7.86747C15.692 6.62717 15.7017 5.42649 15.7044 5.14013C15.7047 5.10439 15.7338 5.07589 15.7696 5.07589H15.9579H16.1743C16.2103 5.07589 16.2395 5.10509 16.2395 5.14111V7.7643V10.3875C16.2395 10.4235 16.2103 10.4527 16.1743 10.4527H15.9859H15.7968C15.761 10.4527 15.7319 10.4239 15.7316 10.3882L15.7051 7.86747Z" fill="url(#paint3_linear_19318_454163)"/>
</g>
<g filter="url(#filter1_i_19318_454163)">
<path d="M9.15135 12.1688C10.1717 12.5139 10.9345 13.1987 11.3927 14.1811C11.6731 14.7826 11.677 14.8169 11.7072 17.0471L11.7379 19.3043H10.0625H8.38714L8.3604 16.1341L8.33418 13.0284C8.33392 12.9926 8.30477 12.9638 8.26896 12.9638H8.08042H7.89181C7.85601 12.9638 7.82692 12.9926 7.82659 13.0284L7.80038 16.1341L7.77364 19.3043H6.10363H4.43359V15.6522V12H6.54285C8.24268 12 8.74896 12.0327 9.15135 12.1688Z" fill="url(#paint4_linear_19318_454163)"/>
</g>
<g filter="url(#filter2_i_19318_454163)">
<path d="M16.4421 18.1345C16.1951 18.1345 15.9731 18.0885 15.7761 17.9966C15.5817 17.9046 15.428 17.7772 15.315 17.6143C15.2021 17.4488 15.1456 17.2584 15.1456 17.043C15.1456 16.8275 15.2007 16.6384 15.3111 16.4754C15.4241 16.3126 15.5778 16.1852 15.7722 16.0932C15.9692 16.0013 16.1925 15.9553 16.4421 15.9553C16.6891 15.9553 16.9097 16.0013 17.1041 16.0932C17.2985 16.1852 17.4522 16.3126 17.5652 16.4754C17.6782 16.6384 17.7346 16.8275 17.7346 17.043C17.7346 17.2584 17.6782 17.4488 17.5652 17.6143C17.4522 17.7772 17.2985 17.9046 17.1041 17.9966C16.9097 18.0885 16.6891 18.1345 16.4421 18.1345ZM16.4421 15.4627C16.2319 15.4627 16.0441 15.422 15.8786 15.3405C15.7157 15.2565 15.587 15.1422 15.4924 14.9977C15.3978 14.8506 15.3505 14.6824 15.3505 14.4933C15.3505 14.3015 15.3978 14.1347 15.4924 13.9928C15.587 13.8509 15.7157 13.7406 15.8786 13.6618C16.0441 13.5803 16.2319 13.5396 16.4421 13.5396C16.6523 13.5396 16.8388 13.5803 17.0017 13.6618C17.1646 13.7406 17.292 13.8509 17.3839 13.9928C17.4785 14.1347 17.5258 14.3015 17.5258 14.4933C17.5258 14.6824 17.4785 14.8506 17.3839 14.9977C17.292 15.1422 17.1646 15.2565 17.0017 15.3405C16.8388 15.422 16.6523 15.4627 16.4421 15.4627ZM16.4224 18.635C16.7823 18.635 17.1028 18.5693 17.3839 18.438C17.6651 18.304 17.8871 18.1188 18.0499 17.8823C18.2128 17.6432 18.2943 17.3687 18.2943 17.0587C18.2943 16.8486 18.2588 16.6646 18.1878 16.507C18.1196 16.3468 18.0289 16.2101 17.9159 16.0972C17.803 15.9842 17.6834 15.8949 17.5573 15.8292C17.4312 15.7609 17.3117 15.7136 17.1987 15.6873V15.6795C17.3143 15.6427 17.4417 15.5756 17.581 15.4785C17.7202 15.3786 17.8398 15.246 17.9396 15.0804C18.0394 14.9123 18.0894 14.7061 18.0894 14.4617C18.0894 14.1832 18.0171 13.9363 17.8726 13.7209C17.7307 13.5054 17.5363 13.3373 17.2893 13.2165C17.0424 13.093 16.76 13.0312 16.4421 13.0312C16.1268 13.0312 15.8444 13.093 15.5949 13.2165C15.3453 13.3373 15.1482 13.5054 15.0037 13.7209C14.8619 13.9363 14.7909 14.1832 14.7909 14.4617C14.7909 14.7008 14.8395 14.9044 14.9367 15.0726C15.0339 15.2381 15.1509 15.3707 15.2874 15.4706C15.4267 15.5704 15.5567 15.64 15.6776 15.6795V15.6873C15.5673 15.7136 15.4477 15.7609 15.319 15.8292C15.1929 15.8949 15.0733 15.9842 14.9604 16.0972C14.85 16.2075 14.7594 16.3428 14.6885 16.503C14.6175 16.6633 14.582 16.8499 14.582 17.0627C14.582 17.3753 14.6609 17.6498 14.8185 17.8862C14.9761 18.1201 15.1942 18.304 15.4726 18.438C15.7511 18.5693 16.0677 18.635 16.4224 18.635Z" fill="white"/>
</g>
</g>
<defs>
<filter id="filter0_i_19318_454163" x="4.43359" y="4.10938" width="15.1953" height="9.30469" filterUnits="userSpaceOnUse" color-interpolation-filters="sRGB">
<feFlood flood-opacity="0" result="BackgroundImageFix"/>
<feBlend mode="normal" in="SourceGraphic" in2="BackgroundImageFix" result="shape"/>
<feColorMatrix in="SourceAlpha" type="matrix" values="0 0 0 0 0 0 0 0 0 0 0 0 0 0 0 0 0 0 127 0" result="hardAlpha"/>
<feOffset dy="3"/>
<feGaussianBlur stdDeviation="1"/>
<feComposite in2="hardAlpha" operator="arithmetic" k2="-1" k3="1"/>
<feColorMatrix type="matrix" values="0 0 0 0 0.545833 0 0 0 0 0.0932465 0 0 0 0 0.0932465 0 0 0 0.2 0"/>
<feBlend mode="normal" in2="shape" result="effect1_innerShadow_19318_454163"/>
</filter>
<filter id="filter1_i_19318_454163" x="4.43359" y="12" width="7.30469" height="9.30469" filterUnits="userSpaceOnUse" color-interpolation-filters="sRGB">
<feFlood flood-opacity="0" result="BackgroundImageFix"/>
<feBlend mode="normal" in="SourceGraphic" in2="BackgroundImageFix" result="shape"/>
<feColorMatrix in="SourceAlpha" type="matrix" values="0 0 0 0 0 0 0 0 0 0 0 0 0 0 0 0 0 0 127 0" result="hardAlpha"/>
<feOffset dy="3"/>
<feGaussianBlur stdDeviation="1"/>
<feComposite in2="hardAlpha" operator="arithmetic" k2="-1" k3="1"/>
<feColorMatrix type="matrix" values="0 0 0 0 0.545833 0 0 0 0 0.0932465 0 0 0 0 0.0932465 0 0 0 0.2 0"/>
<feBlend mode="normal" in2="shape" result="effect1_innerShadow_19318_454163"/>
</filter>
<filter id="filter2_i_19318_454163" x="14.582" y="13.0312" width="3.71094" height="7.60156" filterUnits="userSpaceOnUse" color-interpolation-filters="sRGB">
<feFlood flood-opacity="0" result="BackgroundImageFix"/>
<feBlend mode="normal" in="SourceGraphic" in2="BackgroundImageFix" result="shape"/>
<feColorMatrix in="SourceAlpha" type="matrix" values="0 0 0 0 0 0 0 0 0 0 0 0 0 0 0 0 0 0 127 0" result="hardAlpha"/>
<feOffset dy="3"/>
<feGaussianBlur stdDeviation="1"/>
<feComposite in2="hardAlpha" operator="arithmetic" k2="-1" k3="1"/>
<feColorMatrix type="matrix" values="0 0 0 0 0.175 0 0 0 0 0.0386458 0 0 0 0 0.0386458 0 0 0 0.25 0"/>
<feBlend mode="normal" in2="shape" result="effect1_innerShadow_19318_454163"/>
</filter>
<linearGradient id="paint0_linear_19318_454163" x1="12" y1="0" x2="12" y2="24" gradientUnits="userSpaceOnUse">
<stop stop-color="#FE5821"/>
<stop offset="1" stop-color="#FF3E01"/>
</linearGradient>
<linearGradient id="paint1_linear_19318_454163" x1="12.0314" y1="4.10938" x2="12.0314" y2="11.4137" gradientUnits="userSpaceOnUse">
<stop stop-color="#D93300"/>
<stop offset="1" stop-color="#D93108"/>
</linearGradient>
<linearGradient id="paint2_linear_19318_454163" x1="12.0316" y1="4.10938" x2="12.0316" y2="11.4137" gradientUnits="userSpaceOnUse">
<stop stop-color="#D93300"/>
<stop offset="1" stop-color="#D93108"/>
</linearGradient>
<linearGradient id="paint3_linear_19318_454163" x1="12.0296" y1="4.11212" x2="12.0296" y2="11.4165" gradientUnits="userSpaceOnUse">
<stop stop-color="#D93300"/>
<stop offset="1" stop-color="#D93108"/>
</linearGradient>
<linearGradient id="paint4_linear_19318_454163" x1="8.08577" y1="12" x2="8.08577" y2="19.3043" gradientUnits="userSpaceOnUse">
<stop stop-color="#D93300"/>
<stop offset="1" stop-color="#D93108"/>
</linearGradient>
<clipPath id="clip0_19318_454163">
<rect width="24" height="24" fill="white"/>
</clipPath>
</defs>
</svg>
