<svg width="22" height="44" viewBox="0 0 22 44" fill="none" xmlns="http://www.w3.org/2000/svg">
<path d="M6.1285 35.583C6.79809 33.084 6.45914 30.5541 5.37475 28.4126L5.38715 28.4159C1.05461 19.8314 1.15921 12.5953 13.6818 6.27737L13.657 6.27073C17.2755 4.44894 20.1431 1.16321 21.2723 -3.0635C23.3751 -10.9239 18.7132 -18.9986 10.8545 -21.1076C2.998 -23.2128 -5.08058 -18.5486 -7.18965 -10.6898C-8.32114 -6.46707 -7.48681 -2.18942 -5.26177 1.20145L-5.28658 1.1948C2.40785 12.9332 -1.11569 19.2499 -9.16398 24.5203L-9.15158 24.5236C-11.1614 25.836 -12.7199 27.8575 -13.3895 30.3565C-14.8334 35.745 -11.6354 41.284 -6.24687 42.7279C-0.854396 44.1695 4.68464 40.9715 6.1285 35.583Z" fill="#E2B93B"/>
</svg>
