<svg width="40" height="47" viewBox="0 0 40 47" fill="none" xmlns="http://www.w3.org/2000/svg">
<g clip-path="url(#clip0_388_705509)">
<path d="M6.46053 35.583C7.13012 33.084 6.79117 30.5541 5.70678 28.4126L5.71918 28.4159C1.38664 19.8314 1.49124 12.5953 14.0139 6.27737L13.9891 6.27073C17.6075 4.44894 20.4751 1.16321 21.6043 -3.0635C23.7072 -10.9239 19.0453 -18.9986 11.1865 -21.1076C3.33003 -23.2128 -4.74855 -18.5486 -6.85762 -10.6898C-7.98911 -6.46707 -7.15478 -2.18942 -4.92974 1.20145L-4.95455 1.1948C2.73988 12.9332 -0.783657 19.2499 -8.83195 24.5203L-8.81955 24.5236C-10.8294 25.836 -12.3879 27.8575 -13.0575 30.3565C-14.5013 35.745 -11.3034 41.284 -5.91484 42.7279C-0.522364 44.1695 5.01668 40.9715 6.46053 35.583Z" fill="#27AE60"/>
</g>
<defs>
<clipPath id="clip0_388_705509">
<rect width="54" height="54" fill="white" transform="translate(-33.8828 0.117188) rotate(-30)"/>
</clipPath>
</defs>
</svg>
