<svg width="23" height="44" viewBox="0 0 23 44" fill="none" xmlns="http://www.w3.org/2000/svg">
<path d="M6.79256 35.583C7.46215 33.084 7.1232 30.5541 6.03881 28.4126L6.05122 28.4159C1.71867 19.8314 1.82327 12.5953 14.3459 6.27737L14.3211 6.27073C17.9395 4.44894 20.8071 1.16321 21.9363 -3.0635C24.0392 -10.9239 19.3773 -18.9986 11.5185 -21.1076C3.66207 -23.2128 -4.41652 -18.5486 -6.52559 -10.6898C-7.65708 -6.46707 -6.82275 -2.18942 -4.59771 1.20145L-4.62252 1.1948C3.07192 12.9332 -0.451626 19.2499 -8.49992 24.5203L-8.48752 24.5236C-10.4974 25.836 -12.0559 27.8575 -12.7255 30.3565C-14.1693 35.745 -10.9713 41.284 -5.58281 42.7279C-0.190333 44.1695 5.34871 40.9715 6.79256 35.583Z" fill="#EF1E1E"/>
</svg>
