<svg width="24" height="25" viewBox="0 0 24 25" fill="none" xmlns="http://www.w3.org/2000/svg">
<g clip-path="url(#clip0_367_600578)">
<path d="M23.5 12.4378C23.5 6.08652 18.3513 0.937799 12 0.937799C5.64872 0.937799 0.5 6.08652 0.5 12.4378C0.5 18.1778 4.70538 22.9354 10.2031 23.7981V15.762H7.2832V12.4378H10.2031V9.90421C10.2031 7.02202 11.92 5.42999 14.5468 5.42999C15.805 5.42999 17.1211 5.6546 17.1211 5.6546V8.48467H15.671C14.2424 8.48467 13.7969 9.37114 13.7969 10.2806V12.4378H16.9863L16.4765 15.762H13.7969V23.7981C19.2946 22.9354 23.5 18.1778 23.5 12.4378Z" fill="white"/>
</g>
<defs>
<clipPath id="clip0_367_600578">
<rect width="24" height="24" fill="white" transform="translate(0 0.36792)"/>
</clipPath>
</defs>
</svg>
