<svg width="24" height="24" viewBox="0 0 24 24" fill="none" xmlns="http://www.w3.org/2000/svg">
<g clip-path="url(#clip0_19300_20741)">
<path fill-rule="evenodd" clip-rule="evenodd" d="M7.5 12.75C7.50226 12.8499 7.48454 12.9492 7.44789 13.0421C7.41123 13.1351 7.35638 13.2197 7.28655 13.2912C7.21672 13.3626 7.13332 13.4194 7.04125 13.4582C6.94917 13.4969 6.85028 13.5169 6.75038 13.517C6.65048 13.517 6.55158 13.497 6.45948 13.4583C6.36739 13.4196 6.28396 13.3629 6.2141 13.2915C6.14423 13.22 6.08934 13.1354 6.05264 13.0425C6.01593 12.9496 5.99817 12.8503 6.00037 12.7504C6.00471 12.5544 6.08558 12.3679 6.22569 12.2309C6.3658 12.0938 6.554 12.017 6.75 12.017C6.94601 12.0169 7.13425 12.0936 7.27443 12.2306C7.4146 12.3676 7.49557 12.554 7.5 12.75ZM12 24C10.3819 23.9998 8.78076 23.6708 7.29375 23.0329C6.90727 22.8519 6.58034 22.5646 6.35122 22.2046C6.1221 21.8446 6.00027 21.4267 6 21V16.8926C6 16.3907 6.1994 15.9093 6.55434 15.5543C6.90927 15.1994 7.39067 15 7.89263 15C8.34713 15 8.76338 15.162 9.09075 15.4298C9.90208 16.1216 10.9337 16.5011 12 16.5C14.4855 16.5 16.5 14.4855 16.5 12C16.5 9.5145 14.4855 7.5 12 7.5C10.2011 7.5 8.6535 8.55825 7.93275 10.0837L7.92487 10.0793C7.86348 10.2051 7.76805 10.3112 7.64941 10.3856C7.53076 10.46 7.39365 10.4996 7.25362 10.5C7.05471 10.5 6.86395 10.421 6.7233 10.2803C6.58264 10.1397 6.50362 9.94891 6.50362 9.75C6.50362 9.588 6.5565 9.43913 6.64387 9.31725C7.629 7.35263 9.65287 6 12 6C15.3135 6 18 8.6865 18 12C18 15.3135 15.3135 18 12 18C10.5293 18 9.19275 17.4593 8.15175 16.5773C8.1525 16.5863 8.151 16.59 8.14425 16.5851C8.0855 16.539 8.01495 16.5103 7.94066 16.5023C7.86638 16.4944 7.79135 16.5075 7.72416 16.5401C7.65697 16.5728 7.60032 16.6237 7.56068 16.687C7.52104 16.7503 7.50001 16.8235 7.5 16.8983V21C7.5 21.2809 7.659 21.519 7.88738 21.6476C9.18581 22.2091 10.5854 22.4992 12 22.5C17.7994 22.5 22.5 17.799 22.5 12C22.5 6.201 17.7994 1.5 12 1.5C6.201 1.5 1.5 6.201 1.5 12V23.25C1.5 23.4489 1.42098 23.6397 1.28033 23.7803C1.13968 23.921 0.948912 24 0.75 24C0.551088 24 0.360322 23.921 0.21967 23.7803C0.0790176 23.6397 0 23.4489 0 23.25V12C0 5.37262 5.37262 0 12 0C18.6274 0 24 5.37262 24 12C24 18.6274 18.6274 24 12 24Z" fill="#E04F16"/>
</g>
<defs>
<clipPath id="clip0_19300_20741">
<rect width="24" height="24" fill="white"/>
</clipPath>
</defs>
</svg>
