<svg width="24" height="24" viewBox="0 0 24 24" fill="none" xmlns="http://www.w3.org/2000/svg">
<g clip-path="url(#clip0_19792_240308)">
<path d="M12.0001 24.0002C18.6276 24.0002 24.0002 18.6276 24.0002 12.0001C24.0002 5.37262 18.6276 0 12.0001 0C5.37262 0 0 5.37262 0 12.0001C0 18.6276 5.37262 24.0002 12.0001 24.0002Z" fill="#34E0A1"/>
<path d="M19.4136 9.66079L20.8617 8.08541H17.6504C16.0428 6.98721 14.1013 6.34766 12.0018 6.34766C9.90473 6.34766 7.96862 6.98865 6.36371 8.08541H3.14453L4.59248 9.66079C3.70488 10.4706 3.14849 11.6372 3.14849 12.9324C3.14849 15.3766 5.13015 17.3583 7.57441 17.3583C8.73561 17.3583 9.79331 16.9104 10.583 16.1783L12.0016 17.723L13.4202 16.1798C14.2099 16.9119 15.2665 17.3583 16.4275 17.3583C18.8718 17.3583 20.8561 15.3766 20.8561 12.9324C20.8574 11.6358 20.301 10.4694 19.4134 9.66079H19.4136ZM7.57567 15.9276C5.92108 15.9276 4.58042 14.5869 4.58042 12.9324C4.58042 11.2778 5.92126 9.9371 7.57567 9.9371C9.23026 9.9371 10.5709 11.2779 10.5709 12.9324C10.5709 14.5868 9.23008 15.9276 7.57567 15.9276ZM12.003 12.8452C12.003 10.8742 10.5697 9.18217 8.67783 8.45945C9.70097 8.03177 10.8231 7.79452 12.0018 7.79452C13.1802 7.79452 14.3038 8.03177 15.327 8.45945C13.4366 9.18361 12.0032 10.8742 12.0032 12.8452H12.003ZM16.4289 15.9276C14.7744 15.9276 13.4337 14.5869 13.4337 12.9324C13.4337 11.2778 14.7745 9.9371 16.4289 9.9371C18.0835 9.9371 19.4242 11.2779 19.4242 12.9324C19.4242 14.5868 18.0834 15.9276 16.4289 15.9276ZM16.4289 11.3609C15.5613 11.3609 14.8588 12.0635 14.8588 12.9311C14.8588 13.7985 15.5613 14.5011 16.4289 14.5011C17.2964 14.5011 17.9989 13.7985 17.9989 12.9311C17.9989 12.0649 17.2964 11.3609 16.4289 11.3609ZM9.14584 12.9324C9.14584 13.7998 8.44328 14.5023 7.57567 14.5023C6.70823 14.5023 6.00568 13.7998 6.00568 12.9324C6.00568 12.0647 6.70823 11.3622 7.57567 11.3622C8.4431 11.3609 9.14584 12.0647 9.14584 12.9324Z" fill="black"/>
</g>
<defs>
<clipPath id="clip0_19792_240308">
<rect width="24" height="24" fill="white"/>
</clipPath>
</defs>
</svg>
