<svg width="24" height="24" viewBox="0 0 24 24" fill="none" xmlns="http://www.w3.org/2000/svg">
<path d="M17.3755 8.33223L17.3668 8.32843C17.3618 8.3266 17.3568 8.3247 17.3524 8.32031C17.3452 8.31262 17.3399 8.30333 17.3369 8.29331C17.3338 8.28321 17.3332 8.27253 17.3349 8.26214L17.8185 5.30552L20.0867 7.57397L17.7278 8.57743C17.7213 8.58014 17.7142 8.58138 17.7072 8.58123H17.6978C17.6946 8.57933 17.6916 8.57684 17.6853 8.57055C17.5975 8.47287 17.4925 8.39209 17.3755 8.33223ZM20.6654 8.15201L23.0905 10.5769C23.5942 11.0811 23.8464 11.3327 23.9384 11.6242C23.9521 11.6674 23.9634 11.7105 23.9722 11.7549L18.1765 9.30065C18.1733 9.2994 18.1702 9.29816 18.167 9.29692C18.1439 9.28755 18.117 9.27687 18.117 9.25309C18.117 9.22931 18.1445 9.21811 18.1677 9.20867L18.1752 9.2056L20.6654 8.15201ZM23.8733 12.5332C23.7481 12.7684 23.5041 13.0124 23.0912 13.4259L20.357 16.1592L16.8206 15.4229L16.8018 15.4191C16.7705 15.4141 16.7373 15.4085 16.7373 15.3803C16.724 15.2345 16.6806 15.0929 16.6101 14.9645C16.5396 14.8362 16.4434 14.7236 16.3275 14.634C16.3132 14.6196 16.3169 14.597 16.3213 14.5764C16.3213 14.5733 16.3213 14.5702 16.3225 14.5677L16.9877 10.4849L16.9902 10.4712C16.9939 10.4399 16.9995 10.4036 17.0277 10.4036C17.1702 10.3859 17.3078 10.34 17.4324 10.2686C17.557 10.1971 17.6662 10.1016 17.7535 9.98758C17.7591 9.98136 17.7628 9.97448 17.7704 9.97067C17.7904 9.96131 17.8142 9.97067 17.8348 9.97945L23.8727 12.5332H23.8733ZM19.7281 16.788L15.2319 21.2836L16.0015 16.554L16.0028 16.5477C16.0034 16.5415 16.0047 16.5352 16.0066 16.5296C16.0128 16.5146 16.0291 16.5083 16.0447 16.502L16.0522 16.4989C16.2208 16.427 16.3698 16.3162 16.4871 16.1755C16.5021 16.158 16.5202 16.1411 16.5434 16.1379C16.5494 16.137 16.5555 16.137 16.5615 16.1379L19.7275 16.7886L19.7281 16.788ZM14.2803 22.2351L13.7735 22.7419L8.17052 14.6453C8.16847 14.6423 8.16635 14.6393 8.16422 14.6365C8.15544 14.6246 8.14608 14.6127 8.14798 14.5989C8.14798 14.5889 8.15486 14.5802 8.16174 14.5727L8.16796 14.5646C8.18486 14.5395 8.19927 14.5145 8.21493 14.4876L8.22744 14.4657L8.22927 14.4638C8.23805 14.4488 8.24618 14.4344 8.26125 14.4263C8.27435 14.42 8.29249 14.4225 8.30691 14.4257L14.5143 15.7056C14.5317 15.7084 14.548 15.7155 14.5618 15.7263C14.57 15.7344 14.5719 15.7432 14.5738 15.7532C14.6171 15.917 14.6976 16.0686 14.8092 16.1961C14.9208 16.3236 15.0603 16.4236 15.2169 16.4883C15.2345 16.4971 15.227 16.5165 15.2188 16.5371C15.2147 16.5462 15.2116 16.5556 15.2095 16.5653C15.1312 17.0407 14.4605 21.131 14.2803 22.2351ZM13.2216 23.293C12.8481 23.6628 12.6279 23.8586 12.3789 23.9374C12.1333 24.0151 11.8698 24.0151 11.6242 23.9374C11.3327 23.8449 11.0805 23.5933 10.5769 23.0891L4.95009 17.463L6.41983 15.1839C6.42671 15.1727 6.43359 15.1626 6.44485 15.1545C6.4605 15.1433 6.48302 15.1482 6.50179 15.1545C6.83913 15.2562 7.20133 15.2379 7.52669 15.1026C7.54359 15.0963 7.56042 15.092 7.57359 15.1038C7.58018 15.1098 7.58603 15.1166 7.59108 15.1239L13.2216 23.2937V23.293ZM4.40762 16.9206L3.11684 15.63L5.66588 14.5427C5.67239 14.5398 5.67941 14.5383 5.68652 14.5383C5.7078 14.5383 5.72031 14.5596 5.73158 14.579C5.75719 14.6183 5.78433 14.6567 5.81291 14.6941L5.82105 14.7041C5.82856 14.7147 5.82355 14.7253 5.81604 14.7353L4.40825 16.9206H4.40762ZM2.54559 15.0587L0.912552 13.4259C0.634748 13.1482 0.433278 12.9467 0.293124 12.7734L5.25856 13.8032C5.26479 13.8043 5.27105 13.8054 5.27732 13.8063C5.30798 13.8113 5.34177 13.817 5.34177 13.8457C5.34177 13.877 5.30486 13.8914 5.27357 13.9033L5.25918 13.9095L2.54559 15.0587ZM0.0078125 11.9338C0.0134713 11.8287 0.0323915 11.7246 0.0641241 11.6242C0.156725 11.3327 0.408251 11.0811 0.912552 10.5769L3.00234 8.48736C3.96454 9.88367 4.92934 11.2782 5.89675 12.6708C5.91365 12.6934 5.93242 12.7184 5.91302 12.7371C5.82167 12.8379 5.73033 12.948 5.66588 13.0675C5.65889 13.0828 5.64813 13.0962 5.6346 13.1063C5.62646 13.1112 5.6177 13.1094 5.60831 13.1075H5.60706L0.0078125 11.9333V11.9338ZM3.5617 7.92804L6.3704 5.11846C6.63506 5.2342 7.59671 5.64022 8.45581 6.00307C9.10652 6.27834 9.69964 6.52858 9.88615 6.60991C9.90488 6.61742 9.92179 6.62493 9.92991 6.64369C9.93496 6.65496 9.9324 6.66935 9.92991 6.68123C9.88542 6.88404 9.89208 7.09472 9.94915 7.29434C10.0063 7.49399 10.1121 7.67626 10.2571 7.82487C10.2759 7.8436 10.2571 7.87053 10.2409 7.89365L10.2321 7.90682L7.37903 12.3255C7.37149 12.338 7.36461 12.3486 7.3521 12.3568C7.3371 12.3661 7.3158 12.3617 7.29829 12.3574C7.18732 12.3283 7.07324 12.3128 6.95854 12.3111C6.85592 12.3111 6.74456 12.3298 6.63193 12.3505H6.63131C6.61879 12.3524 6.60753 12.3549 6.59752 12.3474C6.58647 12.3383 6.57695 12.3276 6.56937 12.3155L3.56108 7.92804H3.5617ZM6.93914 4.55103L10.5769 0.913738C11.0805 0.410122 11.3327 0.158001 11.6242 0.0660365C11.8698 -0.0115955 12.1333 -0.0115955 12.3789 0.0660365C12.6704 0.158001 12.9226 0.410122 13.4262 0.913738L14.2146 1.70201L11.6274 5.70841C11.621 5.72008 11.6122 5.7303 11.6017 5.73844C11.5861 5.74907 11.5642 5.7447 11.5454 5.73844C11.3414 5.67655 11.1254 5.66528 10.9162 5.70561C10.7068 5.74594 10.5105 5.83666 10.3441 5.96992C10.3272 5.98743 10.3022 5.97742 10.2809 5.96804C9.94308 5.82102 7.31518 4.71056 6.93914 4.55103ZM14.7639 2.25129L17.1528 4.63987L16.5772 8.20462V8.21399C16.5767 8.22211 16.575 8.23009 16.5722 8.23777C16.5659 8.25028 16.5534 8.25277 16.5409 8.2565C16.4178 8.29382 16.3019 8.35155 16.198 8.42728C16.1935 8.4305 16.1894 8.43409 16.1855 8.43797C16.1786 8.44543 16.1717 8.45231 16.1605 8.45355C16.1513 8.45384 16.1422 8.45238 16.1335 8.44923L12.4934 6.9027L12.4865 6.89957C12.4633 6.89018 12.4358 6.87892 12.4358 6.85515C12.4144 6.65232 12.3481 6.45679 12.2418 6.28272C12.2243 6.25394 12.2049 6.22391 12.2199 6.19451L14.7639 2.25129ZM12.3038 7.63528L15.7162 9.08048C15.735 9.08919 15.7557 9.09731 15.7638 9.1167C15.767 9.1284 15.767 9.1407 15.7638 9.1524C15.7538 9.20245 15.745 9.25938 15.745 9.31689V9.41267C15.745 9.43645 15.7206 9.44641 15.6981 9.45584L15.6912 9.45833C15.1506 9.68919 8.10166 12.6946 8.09105 12.6946C8.08037 12.6946 8.0691 12.6946 8.05849 12.684C8.03969 12.6652 8.05849 12.6389 8.0754 12.6151C8.0784 12.611 8.08132 12.6069 8.08418 12.6026L10.8884 8.26089L10.8935 8.25336C10.9097 8.22709 10.9285 8.19775 10.9585 8.19775L10.9867 8.20206C11.0505 8.21084 11.1069 8.21897 11.1638 8.21897C11.5892 8.21897 11.9834 8.01189 12.2212 7.65782C12.2268 7.64838 12.2341 7.63989 12.2425 7.63279C12.2594 7.62028 12.2844 7.6265 12.3038 7.63528ZM8.39574 13.3815L16.0792 10.1052C16.0792 10.1052 16.0904 10.1052 16.1011 10.1158C16.143 10.1578 16.1786 10.1859 16.213 10.2122L16.2299 10.2228C16.2456 10.2316 16.2612 10.2416 16.2625 10.2579C16.2625 10.2641 16.2625 10.2679 16.2612 10.2735L15.603 14.3162L15.6005 14.3325C15.5961 14.3637 15.5917 14.3994 15.5623 14.3994C15.3868 14.4113 15.2169 14.4657 15.0672 14.558C14.9175 14.6503 14.7926 14.7778 14.7033 14.9293L14.7001 14.9343C14.6913 14.9487 14.6832 14.9625 14.6689 14.9699C14.6557 14.9762 14.6388 14.9737 14.6251 14.9706L8.49774 13.7068C8.49144 13.7056 8.40261 13.3821 8.39574 13.3815Z" fill="url(#paint0_radial_19792_169947)"/>
<defs>
<radialGradient id="paint0_radial_19792_169947" cx="0" cy="0" r="1" gradientUnits="userSpaceOnUse" gradientTransform="translate(-0.796774 11.6633) rotate(90) scale(23.9614 27.6677)">
<stop stop-color="#20C6B7"/>
<stop offset="1" stop-color="#4D9ABF"/>
</radialGradient>
</defs>
</svg>
