<svg width="24" height="24" viewBox="0 0 24 24" fill="none" xmlns="http://www.w3.org/2000/svg">
<g clip-path="url(#clip0_19542_130143)">
<path d="M23.9976 12.0754C23.9976 15.3686 24.108 19.2036 21.6568 21.6632C19.2057 24.1226 15.3686 23.9975 12.0754 23.9975C8.78229 23.9975 4.94723 24.1079 2.4878 21.6569C0.0283527 19.2058 0.153409 15.3686 0.153409 12.0754C0.153409 8.7823 0.0450268 4.94724 2.49614 2.4878C4.94723 0.028353 8.78438 0.153409 12.0754 0.153409C15.3665 0.153409 19.2037 0.0450271 21.6631 2.49614C24.1225 4.94724 23.9976 8.78438 23.9976 12.0754Z" fill="#12262B"/>
<path d="M13.422 5.84375H5.7956C5.12105 5.84375 4.57422 6.39058 4.57422 7.06513C4.57422 7.73969 5.12105 8.28652 5.7956 8.28652H13.422C14.0965 8.28652 14.6433 7.73969 14.6433 7.06513C14.6433 6.39058 14.0965 5.84375 13.422 5.84375Z" fill="white"/>
<path d="M15.918 10.8555H8.2917C7.61716 10.8555 7.07031 11.4023 7.07031 12.0769C7.07031 12.7514 7.61716 13.2982 8.2917 13.2982H15.918C16.5926 13.2982 17.1394 12.7514 17.1394 12.0769C17.1394 11.4023 16.5926 10.8555 15.918 10.8555Z" fill="white"/>
<path d="M13.4202 15.8672H10.7878C10.1132 15.8672 9.56641 16.4141 9.56641 17.0886C9.56641 17.7632 10.1132 18.31 10.7878 18.31H13.4202C14.0948 18.31 14.6416 17.7632 14.6416 17.0886C14.6416 16.4141 14.0948 15.8672 13.4202 15.8672Z" fill="white"/>
<path d="M19.5795 7.06513C19.5795 6.39058 19.0326 5.84375 18.3581 5.84375C17.6835 5.84375 17.1367 6.39058 17.1367 7.06513C17.1367 7.73969 17.6835 8.28652 18.3581 8.28652C19.0326 8.28652 19.5795 7.73969 19.5795 7.06513Z" fill="white"/>
</g>
<defs>
<clipPath id="clip0_19542_130143">
<rect width="24" height="24" fill="white"/>
</clipPath>
</defs>
</svg>
