<svg width="24" height="24" viewBox="0 0 24 24" fill="none" xmlns="http://www.w3.org/2000/svg">
<path d="M12 24C18.6274 24 24 18.6274 24 12C24 5.37258 18.6274 0 12 0C5.37258 0 0 5.37258 0 12C0 18.6274 5.37258 24 12 24Z" fill="#139EF3"/>
<path fill-rule="evenodd" clip-rule="evenodd" d="M12.0005 4.33984C12.3116 4.33984 12.5638 4.5894 12.5638 4.89725V5.34317H16.5147C17.5368 5.34317 18.3654 6.16316 18.3654 7.17464V8.84466C18.3654 9.03475 18.4417 9.21703 18.5776 9.35144L18.8902 9.66082C19.2359 10.0029 19.2359 10.5575 18.8902 10.8996L18.5776 11.2089C18.4417 11.3433 18.3654 11.5256 18.3654 11.7157V13.2583C18.3654 13.5662 18.1133 13.8157 17.8022 13.8157C17.4911 13.8157 17.2389 13.5662 17.2389 13.2583V11.7157C17.2389 11.23 17.4339 10.7641 17.781 10.4206L17.9229 10.2802L17.781 10.1397C17.4339 9.79624 17.2389 9.3304 17.2389 8.84466V7.17464C17.2389 6.77885 16.9146 6.45798 16.5147 6.45798H7.4863C7.08635 6.45798 6.7621 6.77885 6.7621 7.17464V8.84466C6.7621 9.3304 6.56712 9.79624 6.22002 10.1397L6.07809 10.2802L6.22002 10.4206C6.56712 10.7641 6.7621 11.23 6.7621 11.7157V13.1787C6.7621 13.5745 7.08635 13.8954 7.4863 13.8954H15.3077C16.3298 13.8954 17.1584 14.7153 17.1584 15.7268V18.5935C17.1584 19.605 16.3298 20.4249 15.3077 20.4249H8.93471C7.91258 20.4249 7.08397 19.605 7.08397 18.5935V17.2557C7.08397 16.9479 7.33615 16.6983 7.64723 16.6983C7.95832 16.6983 8.2105 16.9479 8.2105 17.2557V18.5935C8.2105 18.9893 8.53475 19.3101 8.93471 19.3101H15.3077C15.7076 19.3101 16.0319 18.9893 16.0319 18.5935V15.7268C16.0319 15.331 15.7076 15.0102 15.3077 15.0102H7.4863C6.46418 15.0102 5.63556 14.1902 5.63556 13.1787V11.7157C5.63556 11.5256 5.55927 11.3433 5.42344 11.2089L5.11081 10.8996C4.76515 10.5575 4.76515 10.0029 5.11081 9.66082L5.42344 9.35144C5.55927 9.21703 5.63556 9.03475 5.63556 8.84466V7.17464C5.63556 6.16316 6.46418 5.34317 7.4863 5.34317H11.4372V4.89725C11.4372 4.5894 11.6894 4.33984 12.0005 4.33984Z" fill="white"/>
<path d="M9.83112 10.4683C10.3246 10.4683 10.7247 10.0111 10.7247 9.44706C10.7247 8.88302 10.3246 8.42578 9.83112 8.42578C9.33759 8.42578 8.9375 8.88302 8.9375 9.44706C8.9375 10.0111 9.33759 10.4683 9.83112 10.4683Z" fill="white"/>
<path d="M14.171 10.4683C14.6645 10.4683 15.0646 10.0111 15.0646 9.44706C15.0646 8.88302 14.6645 8.42578 14.171 8.42578C13.6774 8.42578 13.2773 8.88302 13.2773 9.44706C13.2773 10.0111 13.6774 10.4683 14.171 10.4683Z" fill="white"/>
<path fill-rule="evenodd" clip-rule="evenodd" d="M12.0007 3.20467C11.7468 3.20467 11.5411 3.42758 11.5411 3.70254C11.5411 3.97751 11.7468 4.20042 12.0007 4.20042C12.2545 4.20042 12.4602 3.97751 12.4602 3.70254C12.4602 3.42758 12.2545 3.20467 12.0007 3.20467ZM10.4688 3.70254C10.4688 2.78599 11.1546 2.04297 12.0007 2.04297C12.8467 2.04297 13.5326 2.78599 13.5326 3.70254C13.5326 4.6191 12.8467 5.36212 12.0007 5.36212C11.1546 5.36212 10.4688 4.6191 10.4688 3.70254Z" fill="white"/>
</svg>
