<svg width="24" height="24" viewBox="0 0 24 24" fill="none" xmlns="http://www.w3.org/2000/svg">
<g clip-path="url(#clip0_19542_48069)">
<path d="M18.2441 9.52713C18.3826 9.8554 18.4952 10.1941 18.5809 10.5399C18.6135 10.6727 18.6421 10.8065 18.6667 10.9411C19.3361 14.6109 16.907 18.129 13.2411 18.799C10.0201 19.3935 6.78707 17.5311 5.68212 14.4443C5.53994 14.0461 5.43463 13.6357 5.36743 13.2184C5.34215 13.0503 5.38708 12.8791 5.49167 12.7452C5.70191 12.4761 6.09029 12.4285 6.35921 12.6389C6.92587 13.0813 7.55953 13.4302 8.2362 13.6725C11.744 14.928 15.6044 13.0993 16.8587 9.58773C17.0879 8.94693 17.9807 8.89993 18.2441 9.52713ZM11.9876 24C5.36702 24 0 18.6274 0 12C0 5.37258 5.36702 0 11.9876 0C18.6081 0 23.9751 5.37258 23.9751 12C23.9751 18.6274 18.6081 24 11.9876 24ZM11.9876 21.4838C17.2199 21.4838 21.4616 17.2378 21.4616 12C21.4616 6.7622 17.2199 2.51617 11.9876 2.51617C6.7552 2.51617 2.51356 6.7622 2.51356 12C2.51356 17.2378 6.7552 21.4838 11.9876 21.4838Z" fill="#3A21CE"/>
</g>
<defs>
<clipPath id="clip0_19542_48069">
<rect width="24" height="24" fill="white"/>
</clipPath>
</defs>
</svg>
