<svg width="24" height="24" viewBox="0 0 24 24" fill="none" xmlns="http://www.w3.org/2000/svg">
<g clip-path="url(#clip0_19542_586276)">
<path fill-rule="evenodd" clip-rule="evenodd" d="M23.991 12.3503C23.9419 13.41 23.0712 14.2545 22.0002 14.25C21.7971 14.2494 21.5952 14.2178 21.4017 14.1563C21.3972 14.1544 21.3938 14.1555 21.3889 14.1536C20.0519 13.721 18.6553 13.5005 17.25 13.5C16.8473 13.5 16.4509 13.5263 16.0572 13.5619C16.0036 13.5728 15.9531 13.5949 15.9089 13.627C15.8646 13.659 15.8278 13.7001 15.8008 13.7476C15.7738 13.7951 15.7573 13.8478 15.7523 13.9021C15.7474 13.9565 15.7541 14.0113 15.7722 14.0629C15.7767 14.0753 15.7654 14.0745 15.7594 14.0783C16.4981 16.2862 17.0199 18.5608 17.3175 20.8699C17.3183 20.8718 17.322 20.8699 17.3228 20.8725C17.3337 20.9288 17.3888 20.9764 17.4409 20.9644C19.2824 19.8405 20.7346 18.1784 21.6012 16.2026L21.6214 16.2109C21.6886 16.0515 21.8087 15.9203 21.9616 15.8393C22.1144 15.7584 22.2905 15.7328 22.4601 15.7668C22.6296 15.8008 22.7822 15.8924 22.892 16.026C23.0018 16.1596 23.062 16.3271 23.0625 16.5C23.0625 16.611 23.0363 16.7164 22.9935 16.8109C21.9799 19.1235 20.2553 21.051 18.1009 22.3271C17.9445 22.4086 17.7753 22.4628 17.6007 22.4873C17.3953 22.5134 17.1868 22.4989 16.9871 22.4444C16.7874 22.3899 16.6004 22.2966 16.4367 22.1698C16.2731 22.043 16.1361 21.8852 16.0335 21.7054C15.9309 21.5255 15.8648 21.3273 15.8389 21.1219C15.8355 21.0975 15.8179 21.0679 15.8093 21.0409C15.5301 18.8846 15.0485 16.7593 14.3708 14.6933C14.3689 14.6651 14.3682 14.6374 14.3554 14.6006C14.3019 14.4444 14.2682 14.282 14.2553 14.1173C14.1788 13.1235 14.871 12.2573 15.8288 12.078C16.301 12.0287 16.7753 12.0027 17.25 12C18.8562 12 20.4027 12.2546 21.8535 12.723C21.9015 12.7391 21.9518 12.75 22.0058 12.75C22.248 12.7508 22.44 12.5734 22.4828 12.3435C22.4873 12.2291 22.5 12.1166 22.5 12C22.5 10.2338 22.0553 8.57364 21.2847 7.11376L21.2944 7.10813C21.2326 6.99887 21.1998 6.87557 21.1992 6.75001C21.1983 6.58128 21.2545 6.41721 21.3587 6.2845C21.4629 6.15179 21.6089 6.05824 21.7731 6.01908C21.9372 5.97992 22.1097 5.99744 22.2626 6.06881C22.4155 6.14018 22.5398 6.26118 22.6152 6.41214C22.6163 6.41214 22.617 6.41101 22.6182 6.41026C23.5277 8.13293 24.0022 10.0519 24 12C24 12.117 23.9944 12.2336 23.991 12.3503ZM19.7127 5.63101C18.3193 6.88297 16.7643 7.94241 15.0893 8.78101C15.0499 8.80801 15.0117 8.83613 14.9539 8.86463C14.6869 8.99614 14.4754 9.21838 14.3573 9.49156C14.2392 9.76474 14.2222 10.071 14.3093 10.3556C14.3093 10.3568 14.3082 10.3575 14.307 10.3586C14.7927 12.0611 13.8874 13.8304 12.2674 14.4559C12.2648 14.457 12.2667 14.4638 12.2648 14.4656C9.80542 15.446 7.68745 17.1259 6.17291 19.2975C6.02635 19.555 5.97403 19.8555 6.02494 20.1473C6.07586 20.4392 6.22682 20.7042 6.45191 20.8969C7.91617 21.8163 9.58596 22.3574 11.3112 22.4715L11.3104 22.4831C11.4979 22.4976 11.673 22.5821 11.8009 22.72C11.9288 22.8578 12 23.0387 12.0004 23.2268C12.0004 23.3384 11.9754 23.4487 11.9273 23.5495C11.8792 23.6503 11.8092 23.7391 11.7225 23.8094C11.6357 23.8797 11.5343 23.9297 11.4257 23.9558C11.3171 23.9819 11.204 23.9834 11.0948 23.9603C9.09941 23.8114 7.24578 23.1668 5.64191 22.1603C4.46441 21.3068 4.16553 19.6965 4.92753 18.4736C6.60491 16.0556 8.96816 14.1536 11.7428 13.0568C11.755 13.0483 11.7678 13.0407 11.781 13.0339C12.2118 12.8578 12.561 12.5266 12.7595 12.1057C12.9581 11.6848 12.9916 11.2047 12.8535 10.7603C12.8415 10.722 12.8363 10.6909 12.8292 10.6575C12.6859 10.052 12.7477 9.41602 13.0048 8.84939C13.262 8.28276 13.7 7.81751 14.25 7.52663C15.8406 6.7513 17.3176 5.76214 18.6402 4.58663C18.7151 4.47518 18.7504 4.34176 18.7403 4.20783C18.7302 4.07391 18.6754 3.94726 18.5847 3.84826C16.7828 2.38801 14.4998 1.50001 12 1.50001C10.9755 1.50001 9.99003 1.65901 9.05478 1.93463C9.02335 1.96666 9.00456 2.00898 9.00187 2.05377C8.99918 2.09857 9.01278 2.14283 9.04016 2.17838C9.04278 2.18213 9.03566 2.18026 9.03378 2.18026C10.3367 3.71319 11.5099 5.35184 12.5412 7.07926C12.7223 7.49992 12.781 7.96318 12.7104 8.41571C12.6398 8.86824 12.4428 9.29163 12.1422 9.63713C12.1474 9.64613 12.15 9.65738 12.1568 9.66639C12.2003 9.73801 12.1493 9.75601 12.0439 9.74176C11.9022 9.89148 11.7414 10.022 11.5658 10.1299C11.4574 10.1937 11.3443 10.2492 11.2275 10.296C9.0415 10.9309 6.77639 11.2521 4.50003 11.25C4.13928 11.25 3.78378 11.2384 3.42828 11.2279C1.89829 11.1263 0.70841 9.83438 0.75116 8.28788C0.761704 7.93405 0.837474 7.58521 0.97466 7.25888C1.79403 5.35801 3.09378 3.71738 4.71566 2.47426C4.82006 2.36825 4.95362 2.29569 5.09937 2.2658C5.24512 2.23591 5.39647 2.25005 5.53416 2.30641C5.67185 2.36278 5.78967 2.45882 5.87263 2.58233C5.95559 2.70584 5.99993 2.85123 6.00003 3.00001C5.99988 3.1164 5.97249 3.23114 5.92008 3.33506C5.86766 3.43898 5.79167 3.5292 5.69816 3.59851L5.70791 3.61088C4.21386 4.73277 3.04515 6.2319 2.32166 7.95451C2.27749 8.08461 2.25334 8.22066 2.25003 8.35801C2.24744 8.71128 2.3818 9.05183 2.62491 9.30816C2.86803 9.56449 3.20099 9.71667 3.55391 9.73276C3.86703 9.74101 4.18091 9.75001 4.50003 9.75001C6.66641 9.75001 8.74728 9.44814 10.6939 8.89576C10.7322 8.87813 10.7719 8.86763 10.8094 8.84363C10.9828 8.73625 11.1159 8.57456 11.1879 8.38372C11.26 8.19287 11.2669 7.98358 11.2077 7.78838C10.2387 6.17579 9.1406 4.6444 7.92416 3.20926C7.91516 3.18826 7.90841 3.16838 7.89228 3.14851C7.7418 2.96825 7.63067 2.75851 7.56603 2.53276C7.31666 1.66613 7.79891 0.770259 8.64153 0.482634C9.73246 0.163185 10.8633 0.000679003 12 9.4387e-06C14.7295 -0.00342014 17.3779 0.927854 19.5045 2.63888C20.3592 3.36563 20.5009 4.63913 19.8049 5.53088C19.776 5.56726 19.7427 5.59651 19.7127 5.63101ZM1.49741 12.7256L1.53566 12.7268C1.6552 14.4489 2.20024 16.1144 3.12191 17.574C3.11741 17.5778 3.11216 17.5804 3.10841 17.5838C3.18377 17.6967 3.22705 17.828 3.23364 17.9636C3.24023 18.0992 3.20987 18.2341 3.14582 18.3538C3.08176 18.4736 2.9864 18.5736 2.86992 18.6434C2.75343 18.7132 2.62019 18.75 2.48441 18.75C2.32828 18.7496 2.17618 18.7004 2.04938 18.6093C1.92258 18.5182 1.82741 18.3897 1.77716 18.2419C0.83441 16.6995 0.22016 14.9348 0.05741 13.0358C0.0152389 12.9344 -0.00411238 12.8249 0.000727651 12.7152C0.00556768 12.6055 0.0344805 12.4982 0.0854171 12.4009C0.136354 12.3036 0.208067 12.2187 0.295475 12.1522C0.382883 12.0857 0.483846 12.0392 0.591209 12.0161C0.698571 11.993 0.809706 11.9938 0.916735 12.0184C1.02377 12.043 1.12407 12.0909 1.21054 12.1586C1.29702 12.2263 1.36754 12.3122 1.41711 12.4102C1.46669 12.5082 1.4941 12.6159 1.49741 12.7256ZM14.25 22.5C14.3499 22.4978 14.4492 22.5155 14.5422 22.5521C14.6351 22.5888 14.7198 22.6436 14.7912 22.7135C14.8627 22.7833 14.9194 22.8667 14.9582 22.9588C14.997 23.0508 15.017 23.1497 15.017 23.2496C15.017 23.3495 14.9971 23.4484 14.9584 23.5405C14.9196 23.6326 14.8629 23.716 14.7915 23.7859C14.7201 23.8558 14.6354 23.9107 14.5425 23.9474C14.4496 23.9841 14.3503 24.0018 14.2504 23.9996C14.0544 23.9953 13.868 23.9144 13.7309 23.7743C13.5938 23.6342 13.517 23.446 13.517 23.25C13.5169 23.054 13.5936 22.8658 13.7306 22.7256C13.8676 22.5854 14.0541 22.5044 14.25 22.5Z" fill="#DD2590"/>
</g>
<defs>
<clipPath id="clip0_19542_586276">
<rect width="24" height="24" fill="white"/>
</clipPath>
</defs>
</svg>
