<svg width="24" height="24" viewBox="0 0 24 24" fill="none" xmlns="http://www.w3.org/2000/svg">
<path fill-rule="evenodd" clip-rule="evenodd" d="M19.5 12.75C19.5023 12.8499 19.4845 12.9492 19.4479 13.0421C19.4112 13.1351 19.3564 13.2197 19.2865 13.2912C19.2167 13.3626 19.1333 13.4194 19.0412 13.4582C18.9492 13.4969 18.8503 13.5169 18.7504 13.517C18.6505 13.517 18.5516 13.497 18.4595 13.4583C18.3674 13.4196 18.284 13.3629 18.2141 13.2915C18.1442 13.22 18.0893 13.1354 18.0526 13.0425C18.0159 12.9496 17.9982 12.8503 18.0004 12.7504C18.0047 12.5544 18.0856 12.3679 18.2257 12.2309C18.3658 12.0938 18.554 12.017 18.75 12.017C18.946 12.0169 19.1343 12.0936 19.2744 12.2306C19.4146 12.3676 19.4956 12.554 19.5 12.75ZM15 12.75C15.0023 12.8499 14.9845 12.9492 14.9479 13.0421C14.9112 13.1351 14.8564 13.2197 14.7865 13.2912C14.7167 13.3626 14.6333 13.4194 14.5412 13.4582C14.4492 13.4969 14.3503 13.5169 14.2504 13.517C14.1505 13.517 14.0516 13.497 13.9595 13.4583C13.8674 13.4196 13.784 13.3629 13.7141 13.2915C13.6442 13.22 13.5893 13.1354 13.5526 13.0425C13.5159 12.9496 13.4982 12.8503 13.5004 12.7504C13.5047 12.5544 13.5856 12.3679 13.7257 12.2309C13.8658 12.0938 14.054 12.017 14.25 12.017C14.446 12.0169 14.6343 12.0936 14.7744 12.2306C14.9146 12.3676 14.9956 12.554 15 12.75ZM5.25 6.93713C5.25015 6.68844 5.34908 6.44999 5.52504 6.27424C5.701 6.0985 5.93956 5.99985 6.18825 6C6.43694 6.00015 6.67539 6.09908 6.85113 6.27504C7.02688 6.451 7.12552 6.68956 7.12537 6.93825C7.12533 7.06139 7.10102 7.18331 7.05385 7.29706C7.00669 7.41081 6.93757 7.51415 6.85047 7.60118C6.67455 7.77697 6.436 7.87566 6.18731 7.87556C5.93862 7.87546 5.70016 7.77658 5.52438 7.60066C5.3486 7.42473 5.2499 7.18582 5.25 6.93713ZM10.8754 6.93713C10.8729 6.81246 10.8953 6.68855 10.9413 6.57264C10.9873 6.45674 11.0559 6.35117 11.1432 6.26213C11.2305 6.17308 11.3346 6.10234 11.4496 6.05404C11.5646 6.00575 11.688 5.98088 11.8127 5.98088C11.9374 5.98088 12.0608 6.00575 12.1758 6.05404C12.2907 6.10234 12.3949 6.17308 12.4822 6.26213C12.5695 6.35117 12.6381 6.45674 12.6841 6.57264C12.7301 6.68855 12.7525 6.81246 12.75 6.93713C12.7451 7.18247 12.6442 7.41611 12.4689 7.58788C12.2937 7.75966 12.0581 7.85588 11.8127 7.85588C11.5673 7.85588 11.3317 7.75966 11.1564 7.58788C10.9812 7.41611 10.8803 7.18247 10.8754 6.93713ZM21.9772 18.8512L22.3234 20.1499C22.3983 20.4804 22.3423 20.8272 22.1671 21.1173C21.9918 21.4075 21.7111 21.6185 21.3836 21.7061C21.1942 21.7563 20.9959 21.7634 20.8033 21.727C20.6107 21.6906 20.4287 21.6116 20.2706 21.4958C20.2699 21.495 20.2706 21.4972 20.2699 21.4958L19.017 20.6014C18.2038 20.8643 17.3546 20.9988 16.5 21C14.664 21 12.99 20.3985 11.6891 19.4115C11.5678 19.3487 11.4659 19.2539 11.3948 19.1372C11.3236 19.0206 11.2859 18.8866 11.2856 18.75C11.2856 18.5511 11.3646 18.3603 11.5053 18.2197C11.6459 18.079 11.8367 18 12.0356 18C12.2111 18 12.3701 18.0623 12.4972 18.1635L12.5029 18.1575C13.5645 18.9896 14.9625 19.5 16.5 19.5C17.0649 19.4979 17.6272 19.4243 18.1736 19.281C18.2546 19.2671 18.3529 19.2443 18.4939 19.1996C18.7356 19.1238 18.9916 19.1055 19.2416 19.1462C19.4917 19.1869 19.7287 19.2854 19.9339 19.434L20.8132 20.0625L20.55 19.0774C20.4916 18.8461 20.4967 18.6033 20.5647 18.3746C20.6326 18.146 20.761 17.9399 20.9363 17.778C20.9501 17.7656 20.9591 17.7518 20.9708 17.739C21.918 16.8105 22.5 15.5918 22.5 14.25C22.5 11.3512 19.8135 9 16.5 9C13.1865 9 10.5 11.3512 10.5 14.25C10.5 14.4397 10.5127 14.6273 10.5356 14.8118C10.6245 16.0226 9.73913 17.0918 8.5245 17.2155C8.45813 17.2215 8.39363 17.2215 8.32913 17.223C7.49417 17.1672 6.66923 17.009 5.87288 16.752L4.48012 17.7458C4.47937 17.7472 4.48012 17.745 4.47937 17.7458C4.32136 17.8616 4.13942 17.9406 3.9469 17.977C3.75438 18.0134 3.55615 18.0063 3.36675 17.9561C3.03924 17.8686 2.75837 17.6576 2.58308 17.3675C2.40779 17.0773 2.35171 16.7305 2.42663 16.3999L2.784 15.0611C1.07175 13.6275 0 11.613 0 9.37537C0 5.02537 4.029 1.5 9 1.5C11.9602 1.5 14.5781 2.75737 16.218 4.68712C16.3755 4.8255 16.476 5.02425 16.476 5.25C16.476 5.66437 16.1408 6 15.726 6C15.4897 6 15.2824 5.889 15.1444 5.718L15.1406 5.72175C13.7846 4.07737 11.5417 3 9 3C4.85812 3 1.5 5.8545 1.5 9.37537C1.5 11.2016 2.41088 12.8422 3.85988 14.0033C3.86813 14.0119 3.87075 14.0201 3.87975 14.0272C4.04089 14.1541 4.16202 14.3247 4.2286 14.5187C4.29518 14.7126 4.30439 14.9217 4.25513 15.1207L3.9375 16.3125L5.22937 15.3896C5.36065 15.3001 5.51093 15.2423 5.66836 15.2209C5.82578 15.1994 5.98605 15.2148 6.1365 15.2659C6.14925 15.2711 6.16013 15.2681 6.17288 15.2719C6.771 15.48 7.40662 15.627 8.07038 15.6982C8.1994 15.7009 8.32758 15.6768 8.44683 15.6275C8.56608 15.5782 8.67381 15.5046 8.76324 15.4116C8.85266 15.3185 8.92183 15.208 8.96639 15.0868C9.01095 14.9657 9.02992 14.8367 9.02213 14.7079C9.02137 14.6933 9.02588 14.6873 9.0285 14.6771C9.01725 14.5343 9 14.3944 9 14.25C9 10.5221 12.3581 7.5 16.5 7.5C20.6419 7.5 24 10.5221 24 14.25C24 16.0297 23.2279 17.6441 21.9772 18.8512Z" fill="#27AE60"/>
</svg>
