<svg width="24" height="24" viewBox="0 0 24 24" fill="none" xmlns="http://www.w3.org/2000/svg">
<g clip-path="url(#clip0_19542_635044)">
<path fill-rule="evenodd" clip-rule="evenodd" d="M12.2794 9.875C13.5124 9.875 14.512 10.8519 14.512 12.0568C14.512 13.2617 13.5124 14.2386 12.2794 14.2386C11.0463 14.2386 10.0469 13.2617 10.0469 12.0568C10.0469 10.8519 11.0463 9.875 12.2794 9.875Z" fill="#131313"/>
<path fill-rule="evenodd" clip-rule="evenodd" d="M12.2781 8.78384C10.4315 8.78384 8.92923 10.2523 8.92923 12.0568C8.92923 13.8611 10.4312 15.3292 12.2781 15.3292C14.1243 15.3292 15.6269 13.8611 15.6269 12.0568C15.6269 10.252 14.1243 8.78384 12.2781 8.78384ZM12.2782 15.8746C10.124 15.8746 8.37109 14.1618 8.37109 12.0566C8.37109 9.95106 10.1238 8.23828 12.2782 8.23828C14.4324 8.23828 16.185 9.95106 16.185 12.0566C16.185 14.1618 14.4326 15.8746 12.2782 15.8746Z" fill="#676767"/>
<path fill-rule="evenodd" clip-rule="evenodd" d="M12.0008 3.875C12.7715 3.875 13.3962 4.48547 13.3962 5.23863C13.3962 5.99182 12.7715 6.60229 12.0008 6.60229C11.2301 6.60229 10.6055 5.99182 10.6055 5.23863C10.6055 4.48547 11.2301 3.875 12.0008 3.875Z" fill="#00933F"/>
<path fill-rule="evenodd" clip-rule="evenodd" d="M12.0008 0.0585938C12.7715 0.0585938 13.3962 0.669061 13.3962 1.42222C13.3962 2.17538 12.7715 2.78585 12.0008 2.78585C11.2301 2.78585 10.6055 2.17538 10.6055 1.42222C10.6055 0.669061 11.2301 0.0585938 12.0008 0.0585938Z" fill="#D7E100"/>
<path fill-rule="evenodd" clip-rule="evenodd" d="M12.0008 16.9648C12.7715 16.9648 13.3962 17.5754 13.3962 18.3284C13.3962 19.0815 12.7715 19.6921 12.0008 19.6921C11.2301 19.6921 10.6055 19.0815 10.6055 18.3284C10.6055 17.5754 11.2301 16.9648 12.0008 16.9648Z" fill="#FF3684"/>
<path fill-rule="evenodd" clip-rule="evenodd" d="M8.64971 5.51172C9.11224 5.51172 9.48692 5.87794 9.48692 6.3299C9.48692 6.7817 9.11224 7.14808 8.64971 7.14808C8.1874 7.14808 7.8125 6.7817 7.8125 6.3299C7.8125 5.87794 8.1874 5.51172 8.64971 5.51172Z" fill="#00B73E"/>
<path fill-rule="evenodd" clip-rule="evenodd" d="M15.9075 16.9648C16.3698 16.9648 16.7447 17.3311 16.7447 17.7829C16.7447 18.2349 16.3698 18.6012 15.9075 18.6012C15.4452 18.6012 15.0703 18.2349 15.0703 17.7829C15.0703 17.3311 15.4452 16.9648 15.9075 16.9648Z" fill="#FF7CAD"/>
<path fill-rule="evenodd" clip-rule="evenodd" d="M18.1414 7.14844C18.9121 7.14844 19.5368 7.75896 19.5368 8.51207C19.5368 9.26513 18.9121 9.87566 18.1414 9.87566C17.3708 9.87566 16.7461 9.26513 16.7461 8.51207C16.7461 7.75896 17.3708 7.14844 18.1414 7.14844Z" fill="#00ACE5"/>
<path fill-rule="evenodd" clip-rule="evenodd" d="M6.41879 13.6953C7.18947 13.6953 7.81414 14.3058 7.81414 15.0588C7.81414 15.8121 7.18947 16.4226 6.41879 16.4226C5.64811 16.4226 5.02344 15.8121 5.02344 15.0588C5.02344 14.3058 5.64811 13.6953 6.41879 13.6953Z" fill="#FF1E7D"/>
<path fill-rule="evenodd" clip-rule="evenodd" d="M19.2552 11.5117C19.7175 11.5117 20.0924 11.8779 20.0924 12.3299C20.0924 12.7817 19.7175 13.1481 19.2552 13.1481C18.7929 13.1481 18.418 12.7817 18.418 12.3299C18.418 11.8779 18.7929 11.5117 19.2552 11.5117Z" fill="#B81961"/>
<path fill-rule="evenodd" clip-rule="evenodd" d="M5.30205 11.5117C5.76436 11.5117 6.13926 11.8779 6.13926 12.3299C6.13926 12.7817 5.76436 13.1481 5.30205 13.1481C4.83974 13.1481 4.46484 12.7817 4.46484 12.3299C4.46484 11.8779 4.83974 11.5117 5.30205 11.5117Z" fill="#B81961"/>
<path fill-rule="evenodd" clip-rule="evenodd" d="M15.9075 5.51172C16.3698 5.51172 16.7447 5.87794 16.7447 6.3299C16.7447 6.7817 16.3698 7.14808 15.9075 7.14808C15.4452 7.14808 15.0703 6.7817 15.0703 6.3299C15.0703 5.87794 15.4452 5.51172 15.9075 5.51172Z" fill="#00B73E"/>
<path fill-rule="evenodd" clip-rule="evenodd" d="M8.64971 16.9648C9.11224 16.9648 9.48692 17.3311 9.48692 17.7829C9.48692 18.2349 9.11224 18.6012 8.64971 18.6012C8.1874 18.6012 7.8125 18.2349 7.8125 17.7829C7.8125 17.3311 8.1874 16.9648 8.64971 16.9648Z" fill="#FF7CAD"/>
<path fill-rule="evenodd" clip-rule="evenodd" d="M18.1414 13.6953C18.9121 13.6953 19.5368 14.3058 19.5368 15.0588C19.5368 15.8121 18.9121 16.4226 18.1414 16.4226C17.3708 16.4226 16.7461 15.8121 16.7461 15.0588C16.7461 14.3058 17.3708 13.6953 18.1414 13.6953Z" fill="#FF1E7D"/>
<path fill-rule="evenodd" clip-rule="evenodd" d="M6.41879 7.14844C7.18947 7.14844 7.81414 7.75891 7.81414 8.51207C7.81414 9.26524 7.18947 9.87566 6.41879 9.87566C5.64811 9.87566 5.02344 9.26524 5.02344 8.51207C5.02344 7.75891 5.64811 7.14844 6.41879 7.14844Z" fill="#00ACE5"/>
<path fill-rule="evenodd" clip-rule="evenodd" d="M12.3327 20.7891C13.2047 20.7891 13.9115 21.3987 13.9115 22.1505C13.9115 22.9024 13.2047 23.512 12.3327 23.512C11.4607 23.512 10.7539 22.9024 10.7539 22.1505C10.7539 21.3987 11.4607 20.7891 12.3327 20.7891Z" fill="#FFD000"/>
<path fill-rule="evenodd" clip-rule="evenodd" d="M2.51254 5.51172C3.28322 5.51172 3.90789 6.12219 3.90789 6.87536C3.90789 7.62852 3.28322 8.23899 2.51254 8.23899C1.74186 8.23899 1.11719 7.62852 1.11719 6.87536C1.11719 6.12219 1.74186 5.51172 2.51254 5.51172Z" fill="#00CEF4"/>
<path fill-rule="evenodd" clip-rule="evenodd" d="M21.4891 15.875C22.2598 15.875 22.8844 16.4855 22.8844 17.2385C22.8844 17.9918 22.2598 18.6023 21.4891 18.6023C20.7184 18.6023 20.0938 17.9918 20.0938 17.2385C20.0938 16.4855 20.7184 15.875 21.4891 15.875Z" fill="#FF72AB"/>
<path fill-rule="evenodd" clip-rule="evenodd" d="M21.4891 5.51172C22.2598 5.51172 22.8844 6.12219 22.8844 6.87536C22.8844 7.62852 22.2598 8.23899 21.4891 8.23899C20.7184 8.23899 20.0938 7.62852 20.0938 6.87536C20.0938 6.12219 20.7184 5.51172 21.4891 5.51172Z" fill="#00CEF4"/>
<path fill-rule="evenodd" clip-rule="evenodd" d="M2.51254 15.875C3.28322 15.875 3.90789 16.4855 3.90789 17.2385C3.90789 17.9918 3.28322 18.6023 2.51254 18.6023C1.74186 18.6023 1.11719 17.9918 1.11719 17.2385C1.11719 16.4855 1.74186 15.875 2.51254 15.875Z" fill="#FF72AB"/>
<path fill-rule="evenodd" clip-rule="evenodd" d="M6.97738 1.14844C7.74806 1.14844 8.37273 1.7589 8.37273 2.51207C8.37273 3.26507 7.74806 3.87569 6.97738 3.87569C6.2067 3.87569 5.58203 3.26507 5.58203 2.51207C5.58203 1.7589 6.2067 1.14844 6.97738 1.14844Z" fill="#6DC72E"/>
<path fill-rule="evenodd" clip-rule="evenodd" d="M17.0243 19.6953C17.7949 19.6953 18.4196 20.3058 18.4196 21.0589C18.4196 21.8121 17.7949 22.4225 17.0243 22.4225C16.2536 22.4225 15.6289 21.8121 15.6289 21.0589C15.6289 20.3058 16.2536 19.6953 17.0243 19.6953Z" fill="#FF9500"/>
<path fill-rule="evenodd" clip-rule="evenodd" d="M17.0243 1.14844C17.7949 1.14844 18.4196 1.7589 18.4196 2.51207C18.4196 3.26507 17.7949 3.87569 17.0243 3.87569C16.2536 3.87569 15.6289 3.26507 15.6289 2.51207C15.6289 1.7589 16.2536 1.14844 17.0243 1.14844Z" fill="#6DC72E"/>
<path fill-rule="evenodd" clip-rule="evenodd" d="M6.97738 19.6953C7.74806 19.6953 8.37273 20.3058 8.37273 21.0589C8.37273 21.8121 7.74806 22.4225 6.97738 22.4225C6.2067 22.4225 5.58203 21.8121 5.58203 21.0589C5.58203 20.3058 6.2067 19.6953 6.97738 19.6953Z" fill="#FF9500"/>
<path fill-rule="evenodd" clip-rule="evenodd" d="M22.6063 10.4219C23.377 10.4219 24.0016 11.0323 24.0016 11.7855C24.0016 12.5387 23.377 13.1491 22.6063 13.1491C21.8356 13.1491 21.2109 12.5387 21.2109 11.7855C21.2109 11.0323 21.8356 10.4219 22.6063 10.4219Z" fill="#AB2692"/>
<path fill-rule="evenodd" clip-rule="evenodd" d="M1.39535 10.457C2.16603 10.457 2.7907 11.0675 2.7907 11.8207C2.7907 12.5738 2.16603 13.1843 1.39535 13.1843C0.62467 13.1843 0 12.5738 0 11.8207C0 11.0675 0.62467 10.457 1.39535 10.457Z" fill="#AB2692"/>
</g>
<defs>
<clipPath id="clip0_19542_635044">
<rect width="24" height="24" fill="white"/>
</clipPath>
</defs>
</svg>
