<svg width="24" height="24" viewBox="0 0 24 24" fill="none" xmlns="http://www.w3.org/2000/svg">
<g clip-path="url(#clip0_19542_5271)">
<path d="M12 24C18.6274 24 24 18.6274 24 12C24 5.37258 18.6274 0 12 0C5.37258 0 0 5.37258 0 12C0 18.6274 5.37258 24 12 24Z" fill="#E0F01F"/>
<path d="M18.9648 17.4381V17.496L10.542 17.499V17.4381C11.7566 16.7523 12.595 16.0535 13.3494 15.3235H16.8079L18.9648 17.4381ZM16.8779 6.4691L14.7429 4.375H14.6809C14.6809 4.375 14.7169 8.27765 11.1324 11.827C7.62481 15.3009 3.5 15.3088 3.5 15.3088V15.3696L5.67495 17.5C5.67495 17.5 9.73973 17.5401 13.3304 14.0183C16.9079 10.5082 16.8779 6.4691 16.8779 6.4691Z" fill="black"/>
</g>
<defs>
<clipPath id="clip0_19542_5271">
<rect width="24" height="24" fill="white"/>
</clipPath>
</defs>
</svg>
