<svg width="36" height="36" viewBox="0 0 36 36" fill="none" xmlns="http://www.w3.org/2000/svg">
<g clip-path="url(#clip0_677_33640)">
<path d="M15 19.5C15 20.2956 15.3161 21.0587 15.8787 21.6213C16.4413 22.1839 17.2044 22.5 18 22.5C18.7956 22.5 19.5587 22.1839 20.1213 21.6213C20.6839 21.0587 21 20.2956 21 19.5C21 18.7044 20.6839 17.9413 20.1213 17.3787C19.5587 16.8161 18.7956 16.5 18 16.5C17.2044 16.5 16.4413 16.8161 15.8787 17.3787C15.3161 17.9413 15 18.7044 15 19.5Z" stroke="#BA9A1C" stroke-width="2.5" stroke-linecap="round" stroke-linejoin="round"/>
<path d="M12 31.5V30C12 29.2044 12.3161 28.4413 12.8787 27.8787C13.4413 27.3161 14.2044 27 15 27H21C21.7956 27 22.5587 27.3161 23.1213 27.8787C23.6839 28.4413 24 29.2044 24 30V31.5" stroke="#BA9A1C" stroke-width="2.5" stroke-linecap="round" stroke-linejoin="round"/>
<path d="M22.5 7.5C22.5 8.29565 22.8161 9.05871 23.3787 9.62132C23.9413 10.1839 24.7044 10.5 25.5 10.5C26.2956 10.5 27.0587 10.1839 27.6213 9.62132C28.1839 9.05871 28.5 8.29565 28.5 7.5C28.5 6.70435 28.1839 5.94129 27.6213 5.37868C27.0587 4.81607 26.2956 4.5 25.5 4.5C24.7044 4.5 23.9413 4.81607 23.3787 5.37868C22.8161 5.94129 22.5 6.70435 22.5 7.5Z" stroke="#BA9A1C" stroke-width="2.5" stroke-linecap="round" stroke-linejoin="round"/>
<path d="M25.5 15H28.5C29.2956 15 30.0587 15.3161 30.6213 15.8787C31.1839 16.4413 31.5 17.2044 31.5 18V19.5" stroke="#BA9A1C" stroke-width="2.5" stroke-linecap="round" stroke-linejoin="round"/>
<path d="M7.5 7.5C7.5 8.29565 7.81607 9.05871 8.37868 9.62132C8.94129 10.1839 9.70435 10.5 10.5 10.5C11.2956 10.5 12.0587 10.1839 12.6213 9.62132C13.1839 9.05871 13.5 8.29565 13.5 7.5C13.5 6.70435 13.1839 5.94129 12.6213 5.37868C12.0587 4.81607 11.2956 4.5 10.5 4.5C9.70435 4.5 8.94129 4.81607 8.37868 5.37868C7.81607 5.94129 7.5 6.70435 7.5 7.5Z" stroke="#BA9A1C" stroke-width="2.5" stroke-linecap="round" stroke-linejoin="round"/>
<path d="M4.5 19.5V18C4.5 17.2044 4.81607 16.4413 5.37868 15.8787C5.94129 15.3161 6.70435 15 7.5 15H10.5" stroke="#BA9A1C" stroke-width="2.5" stroke-linecap="round" stroke-linejoin="round"/>
</g>
<defs>
<clipPath id="clip0_677_33640">
<rect width="36" height="36" fill="white"/>
</clipPath>
</defs>
</svg>
