<svg width="107" height="19" viewBox="0 0 107 19" fill="none" xmlns="http://www.w3.org/2000/svg">
<path d="M24.0455 8.46049C23.5823 8.99312 22.3537 9.94017 20.4977 9.97061C18.6418 10.0011 17.4113 9.09322 17.1981 8.8977C13.7664 6.22702 10.2055 0.725107 10.2055 0.725107L20.3455 18.3023L30.7933 0.386867C30.7933 0.387009 27.2946 5.07567 24.0455 8.46049Z" fill="#FFCA08"/>
<path d="M23.008 6.68929C23.032 8.13981 21.8963 9.33477 20.4715 9.35813C19.0465 9.38149 17.8721 8.22462 17.8481 6.7741C17.8242 5.32344 18.9598 4.12876 20.3848 4.10526C21.8096 4.0819 22.9842 5.23878 23.008 6.68929Z" fill="#FFCB05"/>
<path d="M22.3234 13.138C22.0796 13.4204 21.4334 13.9229 20.4569 13.9389C19.4804 13.9549 18.833 13.4732 18.7209 13.3695C16.9153 11.9523 15.0415 9.03319 15.0415 9.03319L20.3774 18.3593L25.8727 8.85522C25.8727 8.85508 24.0325 11.3424 22.3234 13.138Z" fill="#FFA200"/>
<path d="M21.4053 15.5953C21.2769 15.7442 20.9361 16.009 20.4216 16.0175C19.9068 16.026 19.5656 15.772 19.5065 15.7173C18.5548 14.9703 17.5669 13.4316 17.5669 13.4316L20.3796 18.3476L23.2763 13.3379C23.2763 13.3377 22.3062 14.6488 21.4053 15.5953Z" fill="#FE8100"/>
<path d="M13.6327 10.2357C13.8632 10.9024 14.0708 12.4377 13.1693 14.057C12.2678 15.6763 10.8649 16.2858 10.5884 16.3723C6.55493 18.0028 0 18.3294 0 18.3294L20.3234 18.3545L10.0003 0.367188C10.0003 0.367188 12.3198 5.7353 13.6327 10.2357Z" fill="#F1592A"/>
<path d="M11.379 10.1369C12.6357 10.8337 13.0934 12.4064 12.4014 13.6496C11.7092 14.8927 10.1294 15.3357 8.87271 14.6389C7.616 13.942 7.15832 12.3694 7.85037 11.1262C8.54243 9.88308 10.1223 9.44021 11.379 10.1369Z" fill="#F15A29"/>
<path d="M16.8306 14.0627C16.9539 14.4146 17.0667 15.2244 16.5924 16.0763C16.1181 16.9282 15.3764 17.2469 15.2303 17.292C13.0978 18.1439 9.62746 18.3037 9.62746 18.3037L20.3885 18.3551L14.8887 8.85376C14.8888 8.85376 16.1271 11.688 16.8306 14.0627Z" fill="#E41E07"/>
<path d="M18.5041 16.0849C18.5691 16.2704 18.6286 16.6973 18.3786 17.1462C18.1286 17.5952 17.7376 17.7632 17.6606 17.787C16.5365 18.2361 14.7072 18.3204 14.7072 18.3204L20.3796 18.3476L17.4804 13.3392C17.4805 13.3392 18.1331 14.833 18.5041 16.0849Z" fill="#D70B02"/>
<path d="M30.7924 16.5723C30.0987 16.4383 28.6625 15.85 27.708 14.2611C26.7535 12.6723 26.9261 11.1551 26.9893 10.8729C27.5911 6.57176 30.5852 0.743214 30.5852 0.743214L20.4017 18.2952L41.1725 18.3672C41.1725 18.3673 35.3542 17.6879 30.7924 16.5723Z" fill="#7C60AA"/>
<path d="M32.0097 14.671C30.774 15.4103 29.1782 15.0208 28.4455 13.8011C27.7127 12.5812 28.1204 10.9932 29.3561 10.2539C30.592 9.51455 32.1876 9.90404 32.9204 11.1238C33.6532 12.3435 33.2454 13.9318 32.0097 14.671Z" fill="#7C60AA"/>
<path d="M25.8723 17.4227C25.5053 17.3533 24.7461 17.046 24.244 16.21C23.7419 15.3741 23.8361 14.5738 23.8702 14.425C24.1972 12.156 25.7936 9.07682 25.7936 9.07682L20.3684 18.3515L31.3635 18.3489C31.3636 18.3488 28.285 18.0019 25.8723 17.4227Z" fill="#3C2372"/>
<path d="M23.2808 17.8579C23.0875 17.8214 22.6872 17.6593 22.4225 17.2187C22.1578 16.7781 22.2076 16.3561 22.2255 16.2777C22.3978 15.0816 23.2393 13.4585 23.2393 13.4585L20.3796 18.3474L26.1753 18.3459C26.1755 18.3461 24.5526 18.1633 23.2808 17.8579Z" fill="#1D0E4A"/>
<path d="M48.2706 18.3672C46.9363 18.3672 45.7339 18.0885 44.6634 17.5311C43.5928 16.9582 42.7395 16.0679 42.1034 14.8602C41.4828 13.637 41.1725 12.05 41.1725 10.0991V9.63461C41.1725 8.22563 41.3587 7.01794 41.731 6.01153C42.1034 4.98963 42.6076 4.15353 43.2437 3.50323C43.8954 2.85294 44.6479 2.37295 45.5012 2.06329C46.37 1.75362 47.2931 1.59879 48.2706 1.59879C49.1705 1.59879 50.0083 1.71491 50.784 1.94716C51.5598 2.16393 52.2424 2.49682 52.832 2.94583C53.4216 3.39485 53.8948 3.95225 54.2516 4.61803C54.6084 5.28381 54.8256 6.06572 54.9032 6.96375H51.9709C51.7692 5.95733 51.3348 5.22188 50.6676 4.75738C50.016 4.29288 49.217 4.06063 48.2706 4.06063C47.5879 4.06063 46.9285 4.23869 46.2924 4.59481C45.6563 4.93544 45.1288 5.50832 44.7099 6.31345C44.3065 7.11858 44.1048 8.22563 44.1048 9.63461V10.0991C44.1048 11.2139 44.2289 12.1506 44.4772 12.9093C44.7254 13.6525 45.0512 14.2409 45.4546 14.6744C45.8735 15.108 46.3235 15.4254 46.8044 15.6266C47.3009 15.8124 47.7896 15.9053 48.2706 15.9053C49.3877 15.9053 50.2487 15.6499 50.8538 15.1389C51.4744 14.6125 51.8468 13.9003 51.9709 13.0022H54.9032C54.8101 13.9622 54.5774 14.7828 54.2051 15.4641C53.8482 16.1453 53.3672 16.7027 52.7622 17.1363C52.1726 17.5543 51.4977 17.864 50.7375 18.0653C49.9772 18.2665 49.1549 18.3672 48.2706 18.3672Z" fill="#1F2020"/>
<path d="M58.055 18.1117V1.85426H64.2222C65.5875 1.85426 66.7201 2.07103 67.62 2.50456C68.5353 2.93809 69.2258 3.5342 69.6912 4.29288C70.1567 5.05156 70.3894 5.92637 70.3894 6.9173C70.3894 8.03209 70.0868 8.9998 69.4818 9.82041C68.8767 10.6255 67.969 11.2062 66.7589 11.5623L70.8548 18.1117H67.7829L64.1756 11.8874H60.8477V18.1117H58.055ZM60.8477 9.56494H63.7567C65.1841 9.56494 66.1771 9.33269 66.7356 8.86819C67.3097 8.40369 67.5967 7.75339 67.5967 6.9173C67.5967 6.0812 67.3097 5.4309 66.7356 4.9664C66.1771 4.50191 65.1841 4.26966 63.7567 4.26966H60.8477V9.56494Z" fill="#1F2020"/>
<path d="M73.9866 18.1117V1.85426H76.8724L82.0621 11.4926L87.2519 1.85426H90.0446V18.1117H87.2519V6.7315L82.9465 14.7441H81.0847L76.7793 6.7315V18.1117H73.9866Z" fill="#1F2020"/>
<path d="M99.7053 18.3672C98.309 18.3672 97.1531 18.1659 96.2378 17.7633C95.3224 17.3608 94.6242 16.8111 94.1432 16.1144C93.6778 15.4021 93.3985 14.597 93.3054 13.699H96.0981C96.2222 14.3338 96.5403 14.8602 97.0523 15.2783C97.5643 15.6963 98.4486 15.9053 99.7053 15.9053C101.009 15.9053 101.932 15.6963 102.475 15.2783C103.033 14.8447 103.313 14.3183 103.313 13.699C103.313 13.188 103.157 12.77 102.847 12.4448C102.537 12.1197 102.056 11.841 101.404 11.6087C100.768 11.361 99.9536 11.1365 98.9606 10.9352C97.8436 10.6875 96.8971 10.3778 96.1214 10.0062C95.3456 9.61913 94.7561 9.10818 94.3527 8.47337C93.9648 7.83855 93.7709 7.02568 93.7709 6.03475C93.7709 5.21414 93.9958 4.47094 94.4458 3.80516C94.8957 3.13938 95.5551 2.6052 96.4239 2.20264C97.3083 1.80007 98.4021 1.59879 99.7053 1.59879C100.978 1.59879 102.033 1.79233 102.87 2.17941C103.724 2.55101 104.375 3.0697 104.825 3.73548C105.291 4.40126 105.562 5.16769 105.64 6.03475H102.847C102.723 5.44639 102.405 4.97415 101.893 4.61803C101.396 4.24643 100.667 4.06063 99.7053 4.06063C98.5883 4.06063 97.7815 4.25417 97.285 4.64125C96.804 5.02834 96.5636 5.49284 96.5636 6.03475C96.5636 6.77795 96.8739 7.33535 97.4945 7.70695C98.1151 8.07854 99.0692 8.39595 100.357 8.65917C101.319 8.86045 102.157 9.10044 102.87 9.37914C103.584 9.64235 104.181 9.9675 104.662 10.3546C105.143 10.7262 105.5 11.1907 105.733 11.7481C105.981 12.29 106.105 12.9403 106.105 13.699C106.105 14.597 105.865 15.4021 105.384 16.1144C104.918 16.8111 104.212 17.3608 103.266 17.7633C102.32 18.1659 101.133 18.3672 99.7053 18.3672Z" fill="#1F2020"/>
</svg>
