<svg width="31" height="14" viewBox="0 0 31 14" fill="none" xmlns="http://www.w3.org/2000/svg">
<path d="M18.1046 6.10643C17.7558 6.5083 16.8307 7.22284 15.4333 7.24581C14.0359 7.26878 13.1094 6.58382 12.9489 6.4363C10.3651 4.42128 7.68396 0.270094 7.68396 0.270094L15.3187 13.5321L23.1851 0.0148926C23.1851 0.0149994 20.5508 3.55258 18.1046 6.10643Z" fill="#FFCA08"/>
<path d="M17.3234 4.76998C17.3415 5.86439 16.4864 6.76598 15.4136 6.78361C14.3407 6.80124 13.4564 5.92838 13.4384 4.83396C13.4203 3.73944 14.2754 2.83806 15.3483 2.82033C16.4211 2.8027 17.3055 3.67556 17.3234 4.76998Z" fill="#FFCB05"/>
<path d="M16.8079 9.63562C16.6244 9.84873 16.1379 10.2279 15.4026 10.2399C14.6674 10.252 14.18 9.88858 14.0956 9.81028C12.7361 8.74107 11.3252 6.53858 11.3252 6.53858L15.3428 13.5751L19.4804 6.4043C19.4804 6.40419 18.0948 8.28087 16.8079 9.63562Z" fill="#FFA200"/>
<path d="M16.1167 11.4896C16.02 11.602 15.7634 11.8017 15.376 11.8081C14.9885 11.8145 14.7316 11.6229 14.687 11.5817C13.9705 11.0181 13.2267 9.85709 13.2267 9.85709L15.3444 13.5662L17.5254 9.78638C17.5254 9.78627 16.795 10.7755 16.1167 11.4896Z" fill="#FE8100"/>
<path d="M10.2644 7.44574C10.438 7.94878 10.5943 9.10718 9.91556 10.3289C9.23682 11.5507 8.18048 12.0106 7.97229 12.0758C4.9354 13.306 0 13.5525 0 13.5525L15.3021 13.5714L7.52952 0C7.52952 0 9.27592 4.05023 10.2644 7.44574Z" fill="#F1592A"/>
<path d="M8.56765 7.37122C9.51386 7.8969 9.85846 9.08351 9.33739 10.0215C8.81622 10.9594 7.62678 11.2937 6.68057 10.7679C5.73436 10.2421 5.38976 9.05563 5.91082 8.1176C6.43189 7.17969 7.62144 6.84554 8.56765 7.37122Z" fill="#F15A29"/>
<path d="M12.6722 10.3332C12.7651 10.5987 12.85 11.2097 12.4929 11.8525C12.1358 12.4953 11.5773 12.7357 11.4673 12.7697C9.8617 13.4124 7.24878 13.533 7.24878 13.533L15.3511 13.5718L11.2101 6.40308C11.2102 6.40308 12.1425 8.54148 12.6722 10.3332Z" fill="#E41E07"/>
<path d="M13.9323 11.859C13.9812 11.9989 14.026 12.321 13.8378 12.6597C13.6496 12.9985 13.3552 13.1253 13.2972 13.1432C12.4508 13.4821 11.0735 13.5456 11.0735 13.5456L15.3444 13.5661L13.1615 9.78735C13.1616 9.78735 13.653 10.9145 13.9323 11.859Z" fill="#D70B02"/>
<path d="M23.1846 12.2267C22.6622 12.1256 21.5809 11.6817 20.8622 10.4829C20.1435 9.28415 20.2735 8.13943 20.3211 7.92653C20.7742 4.68132 23.0285 0.283691 23.0285 0.283691L15.3611 13.5267L31.0001 13.5809C31.0001 13.581 26.6193 13.0684 23.1846 12.2267Z" fill="#7C60AA"/>
<path d="M24.1011 10.7922C23.1706 11.35 21.9691 11.0562 21.4174 10.1359C20.8657 9.21547 21.1727 8.01733 22.1031 7.4595C23.0336 6.90166 24.235 7.19554 24.7867 8.11582C25.3385 9.03611 25.0315 10.2345 24.1011 10.7922Z" fill="#7C60AA"/>
<path d="M19.48 12.8685C19.2037 12.8161 18.6321 12.5842 18.254 11.9535C17.876 11.3229 17.9469 10.719 17.9726 10.6067C18.2188 8.89474 19.4207 6.57153 19.4207 6.57153L15.3359 13.5693L23.6145 13.5673C23.6146 13.5672 21.2966 13.3055 19.48 12.8685Z" fill="#3C2372"/>
<path d="M17.5288 13.1968C17.3832 13.1692 17.0819 13.0469 16.8826 12.7145C16.6832 12.382 16.7207 12.0637 16.7342 12.0045C16.864 11.1021 17.4975 9.87744 17.4975 9.87744L15.3444 13.5661L19.7082 13.565C19.7083 13.5651 18.4864 13.4272 17.5288 13.1968Z" fill="#1D0E4A"/>
</svg>
