<svg width="141" height="31" viewBox="0 0 141 31" fill="none" xmlns="http://www.w3.org/2000/svg">
<path d="M31.9534 14.1583C31.3378 14.8684 29.7051 16.1312 27.2388 16.1718C24.7725 16.2123 23.1373 15.0019 22.854 14.7412C18.2938 11.1803 13.5617 3.84441 13.5617 3.84441L27.0365 27.2807L40.9202 3.39343C40.9202 3.39362 36.2709 9.64516 31.9534 14.1583Z" fill="#FFCA08"/>
<path d="M30.5747 11.7967C30.6065 13.7307 29.0973 15.324 27.2039 15.3551C25.3103 15.3863 23.7497 13.8438 23.7178 11.9097C23.686 9.97553 25.1951 8.38262 27.0887 8.35129C28.9821 8.32014 30.543 9.86264 30.5747 11.7967Z" fill="#FFCB05"/>
<path d="M29.6648 20.3949C29.3409 20.7715 28.4822 21.4415 27.1845 21.4628C25.8869 21.4841 25.0266 20.8419 24.8777 20.7035C22.4783 18.8141 19.9881 14.9219 19.9881 14.9219L27.0789 27.3566L34.3815 14.6846C34.3815 14.6844 31.936 18.0008 29.6648 20.3949Z" fill="#FFA200"/>
<path d="M28.4448 23.6713C28.2742 23.8699 27.8214 24.2229 27.1376 24.2342C26.4536 24.2456 26.0002 23.9069 25.9216 23.834C24.6569 22.838 23.3442 20.7864 23.3442 20.7864L27.0818 27.3411L30.9312 20.6614C30.9312 20.6612 29.642 22.4093 28.4448 23.6713Z" fill="#FE8100"/>
<path d="M18.116 16.5252C18.4224 17.4141 18.6982 19.4612 17.5003 21.6203C16.3024 23.7793 14.438 24.592 14.0705 24.7073C8.71064 26.8813 0 27.3168 0 27.3168L27.0071 27.3502L13.2891 3.36719C13.2891 3.36719 16.3714 10.5247 18.116 16.5252Z" fill="#F1592A"/>
<path d="M15.1212 16.3935C16.7912 17.3225 17.3994 19.4194 16.4798 21.0771C15.5599 22.7346 13.4607 23.3252 11.7907 22.3961C10.1207 21.4669 9.51247 19.3702 10.4321 17.7125C11.3518 16.055 13.4512 15.4646 15.1212 16.3935Z" fill="#F15A29"/>
<path d="M22.3657 21.6279C22.5295 22.097 22.6794 23.1768 22.0491 24.3127C21.4189 25.4486 20.4332 25.8735 20.2391 25.9336C17.4053 27.0694 12.7936 27.2826 12.7936 27.2826L27.0936 27.3511L19.7851 14.6826C19.7853 14.6826 21.4307 18.4616 22.3657 21.6279Z" fill="#E41E07"/>
<path d="M24.5896 24.3241C24.6759 24.5714 24.7549 25.1406 24.4227 25.7392C24.0905 26.3378 23.571 26.5619 23.4686 26.5936C21.9749 27.1924 19.544 27.3048 19.544 27.3048L27.0818 27.3411L23.2292 20.6632C23.2293 20.6632 24.0966 22.655 24.5896 24.3241Z" fill="#D70B02"/>
<path d="M40.9191 24.974C39.9972 24.7953 38.0887 24.0109 36.8203 21.8924C35.5518 19.774 35.7813 17.751 35.8652 17.3748C36.6649 11.6399 40.6437 3.86856 40.6437 3.86856L27.1112 27.2713L54.7129 27.3672C54.7129 27.3674 46.9811 26.4614 40.9191 24.974Z" fill="#7C60AA"/>
<path d="M42.5367 22.4389C40.8946 23.4247 38.774 22.9054 37.8003 21.2791C36.8265 19.6526 37.3684 17.5353 39.0105 16.5495C40.6528 15.5637 42.7731 16.083 43.7469 17.7093C44.7207 19.3356 44.1788 21.4533 42.5367 22.4389Z" fill="#7C60AA"/>
<path d="M34.3809 26.1079C33.8932 26.0154 32.8843 25.6055 32.2171 24.491C31.5499 23.3765 31.6751 22.3093 31.7204 22.1109C32.1549 19.0856 34.2763 14.98 34.2763 14.98L27.0669 27.3463L41.6779 27.3429C41.6781 27.3427 37.587 26.8802 34.3809 26.1079Z" fill="#3C2372"/>
<path d="M30.9372 26.6882C30.6802 26.6395 30.1484 26.4233 29.7966 25.8358C29.4448 25.2484 29.511 24.6858 29.5347 24.5812C29.7638 22.9864 30.882 20.8223 30.882 20.8223L27.0818 27.3408L34.7836 27.3389C34.7838 27.3391 32.6272 27.0954 30.9372 26.6882Z" fill="#1D0E4A"/>
<path d="M64.1453 27.3672C62.3722 27.3672 60.7744 26.9956 59.3518 26.2524C57.9292 25.4885 56.7952 24.3015 55.9499 22.6912C55.1252 21.0603 54.7129 18.9443 54.7129 16.3431V15.7238C54.7129 13.8451 54.9603 12.2349 55.4551 10.893C55.9499 9.53044 56.62 8.41565 57.4653 7.54858C58.3312 6.68152 59.3311 6.04154 60.4651 5.62865C61.6197 5.21577 62.8464 5.00932 64.1453 5.00932C65.3411 5.00932 66.4544 5.16416 67.4853 5.47382C68.5162 5.76284 69.4233 6.2067 70.2068 6.80538C70.9902 7.40407 71.6191 8.14727 72.0933 9.03498C72.5675 9.92269 72.8561 10.9652 72.9592 12.1626H69.0625C68.7945 10.8207 68.2172 9.84011 67.3307 9.22078C66.4647 8.60145 65.4029 8.29178 64.1453 8.29178C63.2381 8.29178 62.3619 8.52919 61.5166 9.00401C60.6713 9.45819 59.9703 10.222 59.4136 11.2955C58.8776 12.369 58.6095 13.8451 58.6095 15.7238V16.3431C58.6095 17.8295 58.7745 19.0785 59.1044 20.09C59.4342 21.081 59.8672 21.8655 60.4032 22.4435C60.9599 23.0215 61.5578 23.4448 62.197 23.7131C62.8567 23.9609 63.5062 24.0847 64.1453 24.0847C65.6297 24.0847 66.774 23.7441 67.5781 23.0628C68.4028 22.3609 68.8976 21.4113 69.0625 20.2139H72.9592C72.8355 21.4939 72.5262 22.588 72.0314 23.4964C71.5572 24.4047 70.9181 25.1479 70.114 25.726C69.3305 26.2834 68.4337 26.6962 67.4234 26.9646C66.4132 27.233 65.3205 27.3672 64.1453 27.3672Z" fill="#FAF2F2"/>
<path d="M77.1475 27.0266V5.34996H85.3429C87.1572 5.34996 88.6623 5.63898 89.8581 6.21702C91.0745 6.79506 91.992 7.58987 92.6105 8.60145C93.229 9.61302 93.5383 10.7794 93.5383 12.1007C93.5383 13.5871 93.1362 14.8773 92.3322 15.9715C91.5281 17.045 90.322 17.8192 88.7138 18.294L94.1568 27.0266H90.0746L85.281 18.7275H80.8586V27.0266H77.1475ZM80.8586 15.6309H84.7244C86.6212 15.6309 87.9407 15.3212 88.6829 14.7019C89.4457 14.0825 89.8271 13.2155 89.8271 12.1007C89.8271 10.9859 89.4457 10.1188 88.6829 9.49948C87.9407 8.88014 86.6212 8.57048 84.7244 8.57048H80.8586V15.6309Z" fill="#FAF2F2"/>
<path d="M98.3185 27.0266V5.34996H102.153L109.05 18.2011L115.946 5.34996H119.657V27.0266H115.946V11.8529L110.225 22.5364H107.751L102.03 11.8529V27.0266H98.3185Z" fill="#FAF2F2"/>
<path d="M132.495 27.3672C130.64 27.3672 129.104 27.0988 127.887 26.5621C126.671 26.0253 125.743 25.2924 125.104 24.3634C124.486 23.4138 124.114 22.3403 123.991 21.1429H127.702C127.867 21.9893 128.289 22.6912 128.97 23.2486C129.65 23.806 130.825 24.0847 132.495 24.0847C134.227 24.0847 135.454 23.806 136.176 23.2486C136.918 22.6706 137.289 21.9687 137.289 21.1429C137.289 20.4616 137.083 19.9042 136.67 19.4707C136.258 19.0372 135.619 18.6656 134.753 18.3559C133.908 18.0256 132.825 17.7263 131.506 17.4579C130.021 17.1276 128.764 16.7147 127.733 16.2192C126.702 15.7031 125.918 15.0218 125.382 14.1754C124.867 13.329 124.609 12.2452 124.609 10.9239C124.609 9.82979 124.908 8.83886 125.506 7.95115C126.104 7.06344 126.98 6.35121 128.135 5.81445C129.31 5.2777 130.763 5.00932 132.495 5.00932C134.186 5.00932 135.588 5.26738 136.701 5.78349C137.835 6.27895 138.701 6.97054 139.299 7.85825C139.918 8.74596 140.278 9.76785 140.381 10.9239H136.67C136.505 10.1395 136.083 9.5098 135.402 9.03498C134.743 8.53951 133.774 8.29178 132.495 8.29178C131.011 8.29178 129.939 8.54983 129.279 9.06594C128.64 9.58205 128.32 10.2014 128.32 10.9239C128.32 11.9149 128.733 12.6581 129.557 13.1535C130.382 13.649 131.65 14.0722 133.361 14.4232C134.64 14.6915 135.753 15.0115 136.701 15.3831C137.65 15.7341 138.443 16.1676 139.083 16.6837C139.722 17.1792 140.196 17.7985 140.505 18.5417C140.835 19.2643 141 20.1313 141 21.1429C141 22.3403 140.68 23.4138 140.041 24.3634C139.423 25.2924 138.485 26.0253 137.227 26.5621C135.969 27.0988 134.392 27.3672 132.495 27.3672Z" fill="#FAF2F2"/>
</svg>
