<svg width="36" height="36" viewBox="0 0 36 36" fill="none" xmlns="http://www.w3.org/2000/svg">
<g clip-path="url(#clip0_677_33672)">
<path d="M13.5 6H18L21 9H28.5C29.2956 9 30.0587 9.31607 30.6213 9.87868C31.1839 10.4413 31.5 11.2044 31.5 12V22.5C31.5 23.2956 31.1839 24.0587 30.6213 24.6213C30.0587 25.1839 29.2956 25.5 28.5 25.5H13.5C12.7044 25.5 11.9413 25.1839 11.3787 24.6213C10.8161 24.0587 10.5 23.2956 10.5 22.5V9C10.5 8.20435 10.8161 7.44129 11.3787 6.87868C11.9413 6.31607 12.7044 6 13.5 6Z" stroke="#501500" stroke-width="1.5" stroke-linecap="round" stroke-linejoin="round"/>
<path d="M25.5 25.5V28.5C25.5 29.2956 25.1839 30.0587 24.6213 30.6213C24.0587 31.1839 23.2956 31.5 22.5 31.5H7.5C6.70435 31.5 5.94129 31.1839 5.37868 30.6213C4.81607 30.0587 4.5 29.2956 4.5 28.5V15C4.5 14.2044 4.81607 13.4413 5.37868 12.8787C5.94129 12.3161 6.70435 12 7.5 12H10.5" stroke="#501500" stroke-width="1.5" stroke-linecap="round" stroke-linejoin="round"/>
</g>
<defs>
<clipPath id="clip0_677_33672">
<rect width="36" height="36" fill="white"/>
</clipPath>
</defs>
</svg>
