<svg width="36" height="36" viewBox="0 0 36 36" fill="none" xmlns="http://www.w3.org/2000/svg">
<path d="M23.25 30.668V30.75H19.9648L19.9561 30.668H23.25ZM16.0439 30.668L16.0352 30.75H10.5762L10.5967 30.668H16.0439ZM18.1221 13.3867L18.7178 19.0869H17.2822L17.8779 13.3867L18 12.2178L18.1221 13.3867ZM23.7314 5.25L26.1416 8.16309L26.1348 8.18164L25.8662 7.85645L24.3262 5.99512L23.7549 5.30469L23.1758 5.98828L18.6865 11.2881L18.0312 12.0625L18.9629 12.4629L23.0029 14.1973L23.7061 14.499L23.6826 14.5596L22.5488 14.0732L21.1631 13.4785L20.8457 13.3418L19.1641 12.6201L18.0098 12.124L18.0107 12.1162L18.001 12.1201L17.9893 12.1152L17.9902 12.124L16.8359 12.6201L15.1543 13.3418L14.8369 13.4785L13.4512 14.0732L12.3164 14.5596L12.293 14.499L12.9971 14.1973L17.0371 12.4629L17.9688 12.0625L17.3135 11.2881L12.8242 5.98828L12.2451 5.30469L11.6738 5.99512L10.1338 7.85645L9.86426 8.18164L9.85742 8.16309L12.2686 5.25H23.7314ZM13.3379 6.56641L17.4277 11.3945L18 12.0703L18.5723 11.3945L22.6621 6.56641L23.708 5.33203H12.292L13.3379 6.56641Z" fill="#600AD8" stroke="#600AD8" stroke-width="1.5"/>
<path d="M27 21V30" stroke="#600AD8" stroke-width="1.5" stroke-linecap="round" stroke-linejoin="round"/>
<path d="M22.5 25.5H31.5" stroke="#600AD8" stroke-width="1.5" stroke-linecap="round" stroke-linejoin="round"/>
</svg>
