<svg width="24" height="25" viewBox="0 0 24 25" fill="none" xmlns="http://www.w3.org/2000/svg">
<g clip-path="url(#clip0_19464_398949)">
<path fill-rule="evenodd" clip-rule="evenodd" d="M12.9727 23.8005C12.9727 24.1867 13.2857 24.4997 13.6719 24.4997H23.321C23.7071 24.4997 24.0225 24.1858 23.9984 23.8004C23.6521 18.2561 19.2163 13.8203 13.672 13.4739C13.2866 13.4499 12.9727 13.7652 12.9727 14.1514V23.8005Z" fill="#254078"/>
<path fill-rule="evenodd" clip-rule="evenodd" d="M11.027 14.1719C11.027 13.7857 10.714 13.4727 10.3278 13.4727H0.678724C0.29255 13.4727 -0.0227934 13.7866 0.0012943 14.172C0.347613 19.7163 4.7834 24.1521 10.3277 24.4984C10.7131 24.5225 11.027 24.2071 11.027 23.821V14.1719Z" fill="#254078"/>
<path fill-rule="evenodd" clip-rule="evenodd" d="M11.027 10.8278C11.027 11.214 10.714 11.527 10.3278 11.527H0.678724C0.29255 11.527 -0.0227934 11.2131 0.0012943 10.8277C0.347613 5.2834 4.7834 0.847613 10.3277 0.501294C10.7131 0.477207 11.027 0.79255 11.027 1.17872V10.8278Z" fill="#FF62FD"/>
<path fill-rule="evenodd" clip-rule="evenodd" d="M12.9727 1.19921C12.9727 0.813046 13.2857 0.5 13.6719 0.5H23.321C23.7071 0.5 24.0225 0.813931 23.9984 1.19934C23.6521 6.74362 19.2163 11.1794 13.672 11.5258C13.2866 11.5498 12.9727 11.2345 12.9727 10.8483V1.19921Z" fill="#0078FF"/>
</g>
<defs>
<clipPath id="clip0_19464_398949">
<rect width="24" height="24" fill="white" transform="translate(0 0.5)"/>
</clipPath>
</defs>
</svg>
