<svg width="24" height="25" viewBox="0 0 24 25" fill="none" xmlns="http://www.w3.org/2000/svg">
<g clip-path="url(#clip0_19464_629872)">
<path d="M12 24.5C18.6274 24.5 24 19.1274 24 12.5C24 5.87258 18.6274 0.5 12 0.5C5.37258 0.5 0 5.87258 0 12.5C0 19.1274 5.37258 24.5 12 24.5Z" fill="url(#paint0_linear_19464_629872)"/>
<g filter="url(#filter0_i_19464_629872)">
<path d="M7.76999 8.26155C7.76999 11.2215 7.76999 11.9137 7.76999 11.9137C7.52438 11.9137 6.50657 11.579 6.14671 11.3499C5.17285 10.7294 4.50884 9.59994 4.44025 8.44761C4.34154 6.7883 5.33504 5.21807 7.76999 4.60938V8.26155Z" fill="url(#paint1_linear_19464_629872)"/>
<path d="M11.7268 8.26155V11.9137H10.0528H8.37891V9.85246C8.37891 7.19368 8.8861 6.38474 9.79921 5.57314C10.7123 4.76155 11.7268 4.60938 11.7268 4.60938V8.26155Z" fill="url(#paint2_linear_19464_629872)"/>
<path fill-rule="evenodd" clip-rule="evenodd" d="M17.0585 4.77703C18.941 5.41271 20.024 7.38883 19.4921 9.21817C18.5361 12.5064 14.099 12.8501 12.6813 9.74552C11.7631 7.7348 12.7541 5.57016 14.9658 4.75532C15.4747 4.56794 16.4696 4.57819 17.0585 4.77703ZM15.7051 8.36356C15.692 7.12326 15.7017 5.92258 15.7044 5.63622C15.7047 5.60048 15.7338 5.57199 15.7696 5.57199H15.9579H16.1743C16.2103 5.57199 16.2395 5.60118 16.2395 5.6372V8.26039V10.8836C16.2395 10.9196 16.2103 10.9488 16.1743 10.9488H15.9859H15.7968C15.761 10.9488 15.7319 10.92 15.7316 10.8843L15.7051 8.36356Z" fill="url(#paint3_linear_19464_629872)"/>
</g>
<g filter="url(#filter1_i_19464_629872)">
<path d="M9.15135 12.6688C10.1717 13.0139 10.9345 13.6987 11.3927 14.6811C11.6731 15.2826 11.677 15.3169 11.7072 17.5471L11.7379 19.8043H10.0625H8.38714L8.3604 16.6341L8.33418 13.5284C8.33392 13.4926 8.30477 13.4638 8.26896 13.4638H8.08042H7.89181C7.85601 13.4638 7.82692 13.4926 7.82659 13.5284L7.80038 16.6341L7.77364 19.8043H6.10363H4.43359V16.1522V12.5H6.54285C8.24268 12.5 8.74896 12.5327 9.15135 12.6688Z" fill="url(#paint4_linear_19464_629872)"/>
</g>
<g filter="url(#filter2_i_19464_629872)">
<path d="M16.4421 18.6345C16.1951 18.6345 15.9731 18.5885 15.7761 18.4966C15.5817 18.4046 15.428 18.2772 15.315 18.1143C15.2021 17.9488 15.1456 17.7584 15.1456 17.543C15.1456 17.3275 15.2007 17.1384 15.3111 16.9754C15.4241 16.8126 15.5778 16.6852 15.7722 16.5932C15.9692 16.5013 16.1925 16.4553 16.4421 16.4553C16.6891 16.4553 16.9097 16.5013 17.1041 16.5932C17.2985 16.6852 17.4522 16.8126 17.5652 16.9754C17.6782 17.1384 17.7346 17.3275 17.7346 17.543C17.7346 17.7584 17.6782 17.9488 17.5652 18.1143C17.4522 18.2772 17.2985 18.4046 17.1041 18.4966C16.9097 18.5885 16.6891 18.6345 16.4421 18.6345ZM16.4421 15.9627C16.2319 15.9627 16.0441 15.922 15.8786 15.8405C15.7157 15.7565 15.587 15.6422 15.4924 15.4977C15.3978 15.3506 15.3505 15.1824 15.3505 14.9933C15.3505 14.8015 15.3978 14.6347 15.4924 14.4928C15.587 14.3509 15.7157 14.2406 15.8786 14.1618C16.0441 14.0803 16.2319 14.0396 16.4421 14.0396C16.6523 14.0396 16.8388 14.0803 17.0017 14.1618C17.1646 14.2406 17.292 14.3509 17.3839 14.4928C17.4785 14.6347 17.5258 14.8015 17.5258 14.9933C17.5258 15.1824 17.4785 15.3506 17.3839 15.4977C17.292 15.6422 17.1646 15.7565 17.0017 15.8405C16.8388 15.922 16.6523 15.9627 16.4421 15.9627ZM16.4224 19.135C16.7823 19.135 17.1028 19.0693 17.3839 18.938C17.6651 18.804 17.8871 18.6188 18.0499 18.3823C18.2128 18.1432 18.2943 17.8687 18.2943 17.5587C18.2943 17.3486 18.2588 17.1646 18.1878 17.007C18.1196 16.8468 18.0289 16.7101 17.9159 16.5972C17.803 16.4842 17.6834 16.3949 17.5573 16.3292C17.4312 16.2609 17.3117 16.2136 17.1987 16.1873V16.1795C17.3143 16.1427 17.4417 16.0756 17.581 15.9785C17.7202 15.8786 17.8398 15.746 17.9396 15.5804C18.0394 15.4123 18.0894 15.2061 18.0894 14.9617C18.0894 14.6832 18.0171 14.4363 17.8726 14.2209C17.7307 14.0054 17.5363 13.8373 17.2893 13.7165C17.0424 13.593 16.76 13.5312 16.4421 13.5312C16.1268 13.5312 15.8444 13.593 15.5949 13.7165C15.3453 13.8373 15.1482 14.0054 15.0037 14.2209C14.8619 14.4363 14.7909 14.6832 14.7909 14.9617C14.7909 15.2008 14.8395 15.4044 14.9367 15.5726C15.0339 15.7381 15.1509 15.8707 15.2874 15.9706C15.4267 16.0704 15.5567 16.14 15.6776 16.1795V16.1873C15.5673 16.2136 15.4477 16.2609 15.319 16.3292C15.1929 16.3949 15.0733 16.4842 14.9604 16.5972C14.85 16.7075 14.7594 16.8428 14.6885 17.003C14.6175 17.1633 14.582 17.3499 14.582 17.5627C14.582 17.8753 14.6609 18.1498 14.8185 18.3862C14.9761 18.6201 15.1942 18.804 15.4726 18.938C15.7511 19.0693 16.0677 19.135 16.4224 19.135Z" fill="white"/>
</g>
</g>
<defs>
<filter id="filter0_i_19464_629872" x="4.43359" y="4.60938" width="15.1953" height="9.30469" filterUnits="userSpaceOnUse" color-interpolation-filters="sRGB">
<feFlood flood-opacity="0" result="BackgroundImageFix"/>
<feBlend mode="normal" in="SourceGraphic" in2="BackgroundImageFix" result="shape"/>
<feColorMatrix in="SourceAlpha" type="matrix" values="0 0 0 0 0 0 0 0 0 0 0 0 0 0 0 0 0 0 127 0" result="hardAlpha"/>
<feOffset dy="3"/>
<feGaussianBlur stdDeviation="1"/>
<feComposite in2="hardAlpha" operator="arithmetic" k2="-1" k3="1"/>
<feColorMatrix type="matrix" values="0 0 0 0 0.545833 0 0 0 0 0.0932465 0 0 0 0 0.0932465 0 0 0 0.2 0"/>
<feBlend mode="normal" in2="shape" result="effect1_innerShadow_19464_629872"/>
</filter>
<filter id="filter1_i_19464_629872" x="4.43359" y="12.5" width="7.30469" height="9.30469" filterUnits="userSpaceOnUse" color-interpolation-filters="sRGB">
<feFlood flood-opacity="0" result="BackgroundImageFix"/>
<feBlend mode="normal" in="SourceGraphic" in2="BackgroundImageFix" result="shape"/>
<feColorMatrix in="SourceAlpha" type="matrix" values="0 0 0 0 0 0 0 0 0 0 0 0 0 0 0 0 0 0 127 0" result="hardAlpha"/>
<feOffset dy="3"/>
<feGaussianBlur stdDeviation="1"/>
<feComposite in2="hardAlpha" operator="arithmetic" k2="-1" k3="1"/>
<feColorMatrix type="matrix" values="0 0 0 0 0.545833 0 0 0 0 0.0932465 0 0 0 0 0.0932465 0 0 0 0.2 0"/>
<feBlend mode="normal" in2="shape" result="effect1_innerShadow_19464_629872"/>
</filter>
<filter id="filter2_i_19464_629872" x="14.582" y="13.5312" width="3.71094" height="7.60547" filterUnits="userSpaceOnUse" color-interpolation-filters="sRGB">
<feFlood flood-opacity="0" result="BackgroundImageFix"/>
<feBlend mode="normal" in="SourceGraphic" in2="BackgroundImageFix" result="shape"/>
<feColorMatrix in="SourceAlpha" type="matrix" values="0 0 0 0 0 0 0 0 0 0 0 0 0 0 0 0 0 0 127 0" result="hardAlpha"/>
<feOffset dy="3"/>
<feGaussianBlur stdDeviation="1"/>
<feComposite in2="hardAlpha" operator="arithmetic" k2="-1" k3="1"/>
<feColorMatrix type="matrix" values="0 0 0 0 0.175 0 0 0 0 0.0386458 0 0 0 0 0.0386458 0 0 0 0.25 0"/>
<feBlend mode="normal" in2="shape" result="effect1_innerShadow_19464_629872"/>
</filter>
<linearGradient id="paint0_linear_19464_629872" x1="12" y1="0.5" x2="12" y2="24.5" gradientUnits="userSpaceOnUse">
<stop stop-color="#FE5821"/>
<stop offset="1" stop-color="#FF3E01"/>
</linearGradient>
<linearGradient id="paint1_linear_19464_629872" x1="12.0314" y1="4.60938" x2="12.0314" y2="11.9137" gradientUnits="userSpaceOnUse">
<stop stop-color="#D93300"/>
<stop offset="1" stop-color="#D93108"/>
</linearGradient>
<linearGradient id="paint2_linear_19464_629872" x1="12.0316" y1="4.60938" x2="12.0316" y2="11.9137" gradientUnits="userSpaceOnUse">
<stop stop-color="#D93300"/>
<stop offset="1" stop-color="#D93108"/>
</linearGradient>
<linearGradient id="paint3_linear_19464_629872" x1="12.0296" y1="4.60822" x2="12.0296" y2="11.9126" gradientUnits="userSpaceOnUse">
<stop stop-color="#D93300"/>
<stop offset="1" stop-color="#D93108"/>
</linearGradient>
<linearGradient id="paint4_linear_19464_629872" x1="8.08577" y1="12.5" x2="8.08577" y2="19.8043" gradientUnits="userSpaceOnUse">
<stop stop-color="#D93300"/>
<stop offset="1" stop-color="#D93108"/>
</linearGradient>
<clipPath id="clip0_19464_629872">
<rect width="24" height="24" fill="white" transform="translate(0 0.5)"/>
</clipPath>
</defs>
</svg>
