<svg width="24" height="25" viewBox="0 0 24 25" fill="none" xmlns="http://www.w3.org/2000/svg">
<g clip-path="url(#clip0_19464_471812)">
<path d="M22.4811 23.4497C21.8269 23.4497 21.4225 22.9383 21.4225 22.3126C21.4225 21.6425 21.8854 21.1754 22.4811 21.1754C23.0711 21.1754 23.5326 21.6425 23.5326 22.3126C23.5326 22.984 23.0711 23.4497 22.4811 23.4497ZM22.4811 21.0469C21.8111 21.0469 21.2383 21.5511 21.2383 22.3126C21.2383 23.0326 21.7554 23.574 22.4811 23.574C23.1425 23.574 23.7183 23.0726 23.7183 22.3126C23.7183 21.5511 23.1425 21.0469 22.4811 21.0469Z" fill="#072F54"/>
<path d="M22.1856 22.2082V21.7467H22.497C22.6542 21.7467 22.8399 21.7711 22.8399 21.9625C22.8399 22.1896 22.6685 22.2082 22.4728 22.2082H22.1856ZM23.0699 21.9924C23.0699 21.6911 22.8842 21.5625 22.5242 21.5625H21.957V23.0582H22.2042V22.4182H22.4328L22.8199 23.0582H23.0985L22.6785 22.401C22.9056 22.3739 23.0699 22.2639 23.0699 21.9924Z" fill="#072F54"/>
<path d="M13.9424 9.65443L13.4624 8.29586L9.39094 2.85443L10.1224 2.673L17.1424 8.74157L21.2738 7.56014C21.7595 7.43443 22.311 7.40728 22.731 7.41014C21.4323 4.61014 19.0567 2.31157 15.9195 1.19443C9.71808 -1.01557 2.89951 2.22443 0.693796 8.42871C0.0109393 10.3473 -0.151917 12.3273 0.135226 14.2102L10.0324 10.7716L13.9424 9.65443Z" fill="#072F54"/>
<path d="M23.1675 8.48047C22.8047 8.71618 22.2718 9.02475 21.7432 9.19475L17.6032 10.3762L14.8403 19.2448L14.1232 19.4776L14.706 12.7048L14.3803 11.2976L10.5004 12.4048L0.246094 14.8191C1.05752 18.7662 3.85181 22.2033 7.92467 23.6547C14.1275 25.8648 20.9432 22.6233 23.1489 16.4233C24.1003 13.7505 24.039 10.9619 23.1675 8.48047Z" fill="#072F54"/>
<path d="M14.3795 11.3004L14.7067 12.7062L14.1224 19.479L14.8395 19.2462L17.6024 10.379L21.7424 9.19759C22.271 9.02759 22.8039 8.71616 23.1667 8.4833C23.0395 8.11902 22.8938 7.76045 22.7325 7.41045C22.3125 7.40759 21.761 7.43616 21.2753 7.55902L17.1439 8.7433L10.1224 2.67188L9.39243 2.85473L13.4624 8.29616L13.9439 9.6533L10.0324 10.7733L0.136719 14.209C0.168147 14.4147 0.203863 14.619 0.245291 14.8218L10.501 12.4075L14.3795 11.3004Z" fill="#FBC108"/>
</g>
<defs>
<clipPath id="clip0_19464_471812">
<rect width="24" height="24" fill="white" transform="translate(0 0.5)"/>
</clipPath>
</defs>
</svg>
