<svg width="24" height="25" viewBox="0 0 24 25" fill="none" xmlns="http://www.w3.org/2000/svg">
<path fill-rule="evenodd" clip-rule="evenodd" d="M21.5536 17.6761C20.9025 18.7291 19.8393 19.5063 18.5868 19.8447C18.7658 19.272 18.8572 18.6785 18.8583 18.082C18.8583 15.1111 16.6616 12.6193 13.7128 11.9408C14.3241 11.3836 15.0788 10.9823 15.9046 10.7755C16.5414 10.6139 17.2064 10.5723 17.8607 10.653C18.515 10.7338 19.1455 10.9353 19.7153 11.2457C22.1136 12.5438 22.9381 15.4282 21.5536 17.6761ZM12.1056 22.789C10.7938 22.789 9.54607 22.3006 8.62032 21.4667C9.23862 21.3252 9.8321 21.1022 10.3828 20.8045C13.1268 19.3195 14.3306 16.2918 13.4848 13.5595C15.5846 14.1234 17.1276 15.9353 17.1276 18.082C17.1276 20.677 14.8743 22.789 12.1056 22.789ZM2.65707 17.6761C2.00132 16.6112 1.83157 15.3567 2.13807 14.1898C2.57784 14.6184 3.07999 14.9874 3.62982 15.2859C4.65157 15.8406 5.81289 16.1328 6.99532 16.1326C7.90769 16.1319 8.81047 15.959 9.64925 15.6244C10.488 15.2898 11.2454 14.8004 11.8758 14.1856C12.4026 16.1708 11.4996 18.3264 9.51757 19.3992C8.75785 19.8117 7.89429 20.0289 7.01507 20.0288C6.13067 20.0291 5.26187 19.8117 4.49657 19.3986C3.73125 18.9855 3.0966 18.3913 2.65682 17.6761H2.65707ZM2.65682 7.45021C3.30795 6.39712 4.37129 5.61992 5.62382 5.28159C5.44442 5.85444 5.35285 6.44804 5.35182 7.04478C5.35182 10.014 7.54757 12.5051 10.4948 13.1848C8.92382 14.6076 6.47832 14.9538 4.49532 13.8806C3.33332 13.2515 2.50257 12.2367 2.15532 11.022C1.98278 10.4252 1.93826 9.80247 2.02432 9.18956C2.11037 8.57665 2.32531 7.9856 2.65682 7.45021ZM12.1056 2.33729C13.4178 2.33729 14.6643 2.82521 15.5893 3.65845C14.9716 3.80119 14.3785 4.0245 13.8278 4.32182C12.2653 5.16765 11.1478 6.53239 10.6813 8.16578C10.3616 9.28169 10.3763 10.4579 10.7238 11.5666C8.62507 11.0022 7.08332 9.19056 7.08332 7.04478C7.08332 4.44905 9.33607 2.33729 12.1056 2.33729ZM21.5536 7.45021C22.2101 8.51646 22.3801 9.77239 22.0716 10.9407C21.6329 10.5102 21.1311 10.1398 20.5811 9.84043C19.0186 8.9953 17.1988 8.77068 15.4561 9.20827C14.2632 9.5078 13.1824 10.1089 12.3331 10.9451C12.1249 10.1698 12.1319 9.35779 12.3536 8.58567C12.7003 7.37122 13.5313 6.356 14.6933 5.72711C15.8551 5.09868 17.2083 4.93161 18.5041 5.25689C19.7998 5.58241 20.8826 6.36136 21.5536 7.45021ZM23.0528 6.63934C22.1508 5.17487 20.6946 4.12749 18.9518 3.6899C18.5399 3.587 18.1184 3.52053 17.6931 3.49138C16.4431 1.76851 14.3448 0.714844 12.1056 0.714844C9.78632 0.714844 7.73707 1.81675 6.52057 3.49068C4.30232 3.64353 2.27807 4.82023 1.15807 6.63887C0.255575 8.10311 0.0163242 9.8092 0.482825 11.4426C0.593822 11.8283 0.74322 12.2036 0.929075 12.5634C-0.0376758 14.4398 0.0378243 16.6697 1.15758 18.4876C2.31708 20.3699 4.35907 21.4811 6.51357 21.6321C7.76357 23.3564 9.86607 24.4119 12.1053 24.4119C14.4243 24.4119 16.4736 23.3098 17.6898 21.6356C19.9081 21.4828 21.9323 20.3065 23.0526 18.4876C24.2123 16.6049 24.2183 14.3906 23.2798 12.5664C24.2478 10.689 24.1728 8.45821 23.0526 6.63934" fill="#0092FF"/>
</svg>
