<svg width="24" height="25" viewBox="0 0 24 25" fill="none" xmlns="http://www.w3.org/2000/svg">
<g clip-path="url(#clip0_19464_264964)">
<path d="M14.2079 5.23668C14.1808 6.36012 13.4194 7.96101 12.1415 7.96101C11.3529 7.96101 10.7004 7.28695 10.7004 6.47246V6.44438C10.6732 5.12434 10.1023 3.97281 9.20495 3.15832C8.5252 2.56851 7.68229 2.17531 6.75781 2.06297C7.54633 1.22039 8.66114 0.714844 9.8847 0.714844C11.4345 0.714844 12.8484 1.64168 13.6641 2.98981C14.0448 3.66387 14.2352 4.47836 14.2079 5.23668Z" fill="#175FFF"/>
<path d="M9.15205 5.34688C9.83177 6.24563 10.2397 7.95887 9.26085 8.80145C8.63543 9.33508 7.73816 9.25082 7.22154 8.63294C6.37864 7.64993 5.20945 7.14438 4.04026 7.11629C3.14299 7.0882 2.2457 7.36907 1.48438 7.9027C1.56595 6.75118 2.08257 5.59966 3.03422 4.78516C4.25779 3.74598 5.97078 3.43703 7.43906 4.05492C8.11881 4.3077 8.71701 4.75707 9.15205 5.34688Z" fill="#175FFF"/>
<path d="M5.34443 8.77578C6.40486 9.00047 7.81875 10.0677 7.60123 11.3597C7.46528 12.1742 6.70395 12.7078 5.91542 12.5674H5.88824C4.63748 12.3708 3.41391 12.764 2.51664 13.5223C1.83687 14.084 1.29307 14.8986 1.04835 15.8253C0.395786 14.8704 0.096692 13.6628 0.287025 12.3989C0.586118 10.7979 1.70092 9.44984 3.22358 8.91621C3.90334 8.69152 4.66467 8.63535 5.34443 8.77578Z" fill="#175FFF"/>
<path d="M4.55417 13.9411C5.50584 13.4075 7.24601 13.2951 7.8714 14.4186C8.27925 15.1208 8.03453 16.0475 7.35478 16.4689C6.26716 17.1429 5.5874 18.2383 5.34269 19.4459C5.17955 20.3447 5.26112 21.2996 5.66897 22.1703C4.58136 21.8894 3.57531 21.1593 2.97713 20.0639C2.18861 18.6315 2.2158 16.8621 3.03151 15.4578C3.41218 14.8118 3.9288 14.2782 4.55417 13.9411Z" fill="#175FFF"/>
<path d="M7.16592 18.4088C7.57378 17.3696 8.82453 16.1338 9.99373 16.5832C10.7551 16.8641 11.1358 17.7347 10.8638 18.4931C10.4559 19.7288 10.6191 21.0208 11.1901 22.0881C11.6252 22.9026 12.2777 23.5486 13.1207 23.9698C12.0874 24.4754 10.891 24.5878 9.74902 24.1384C8.25354 23.5766 7.16592 22.2005 6.92121 20.5714C6.83964 19.8413 6.92121 19.0829 7.16592 18.4088Z" fill="#175FFF"/>
<path d="M11.952 20.0914C11.5986 19.0241 11.7889 17.2547 12.9852 16.8053C13.7466 16.5245 14.5623 16.9177 14.8342 17.7041C15.2964 18.9118 16.2209 19.8106 17.3357 20.26C18.1514 20.5969 19.1031 20.6531 20.0003 20.4284C19.5381 21.4957 18.668 22.3664 17.526 22.8158C16.0305 23.3775 14.3176 23.0404 13.1484 21.945C12.6046 21.4115 12.1696 20.7935 11.952 20.0914Z" fill="#175FFF"/>
<path d="M16.6814 18.2132C15.757 17.6234 14.7781 16.1348 15.4307 15.0114C15.8386 14.3092 16.7087 14.0565 17.4155 14.4497C18.5303 15.0675 19.7811 15.1518 20.9231 14.7586C21.766 14.4497 22.5274 13.8879 23.0711 13.1016C23.3702 14.225 23.2615 15.4608 22.6361 16.5561C21.8476 17.9884 20.3249 18.8592 18.7479 18.803C17.9866 18.803 17.2524 18.6064 16.6814 18.2132Z" fill="#175FFF"/>
<path d="M19.1295 13.6317C18.0418 13.8003 16.3832 13.2946 16.1657 12.0028C16.0025 11.2163 16.5463 10.4299 17.3349 10.2895H17.362C18.6128 10.0367 19.6189 9.25032 20.217 8.21114C20.6793 7.42472 20.8968 6.49789 20.8153 5.54297C21.7397 6.18894 22.4466 7.22812 22.637 8.4639C22.9089 10.0648 22.2835 11.75 21.06 12.7611C20.489 13.2105 19.8092 13.5475 19.1295 13.6317Z" fill="#175FFF"/>
<path d="M18.1516 8.52015C17.4174 9.36273 15.8404 10.093 14.8615 9.25038C14.2361 8.71676 14.1545 7.78992 14.6712 7.14394C15.4597 6.13285 15.7588 4.84089 15.5684 3.6332C15.4325 2.73445 15.0246 1.86379 14.3721 1.16164C15.4869 1.04929 16.6561 1.38632 17.6078 2.20081C18.8313 3.24 19.4023 4.95324 19.076 6.55414C18.94 7.28437 18.6137 7.98652 18.1516 8.52015Z" fill="#175FFF"/>
</g>
<defs>
<clipPath id="clip0_19464_264964">
<rect width="24" height="24" fill="white" transform="translate(0 0.5)"/>
</clipPath>
</defs>
</svg>
