<svg width="24" height="25" viewBox="0 0 24 25" fill="none" xmlns="http://www.w3.org/2000/svg">
<g clip-path="url(#clip0_19464_449420)">
<path fill-rule="evenodd" clip-rule="evenodd" d="M23.3612 12.8183L21.6161 11.0694C21.4778 10.9308 21.4001 10.7429 21.4001 10.5471V8.40644C21.4001 6.42862 21.1947 5.71141 20.8088 4.98835C20.423 4.26528 19.8567 3.69782 19.1352 3.31112C18.4137 2.92442 17.698 2.71848 15.7244 2.71848H12.9018C12.8201 2.71848 12.7539 2.65227 12.7539 2.57059C12.7539 2.53142 12.7695 2.49385 12.7971 2.46612L14.5423 0.717157C14.681 0.57813 14.8694 0.5 15.0658 0.5H16.0462C18.6777 0.5 19.6319 0.774576 20.5939 1.29017C21.556 1.80577 22.3109 2.56239 22.8254 3.52648C23.3399 4.49056 23.6139 5.44683 23.6139 8.08393V12.7138C23.6139 12.7955 23.5477 12.8617 23.466 12.8617C23.4267 12.8617 23.389 12.8461 23.3612 12.8183Z" fill="#E44E31"/>
<path fill-rule="evenodd" clip-rule="evenodd" d="M11.3205 23.9116L13.0657 22.1626C13.2044 22.0236 13.3928 21.9454 13.5892 21.9454H15.7237C17.6972 21.9454 18.4129 21.7395 19.1344 21.3528C19.8559 20.9661 20.4221 20.3987 20.808 19.6756C21.1939 18.9525 21.3994 18.2353 21.3994 16.2575V13.4291C21.3994 13.3474 21.4656 13.2812 21.5472 13.2812C21.5866 13.2812 21.6242 13.2968 21.652 13.3246L23.3971 15.0735C23.5354 15.2121 23.6131 15.4 23.6131 15.5958V16.58C23.6131 19.2171 23.3391 20.1734 22.8246 21.1375C22.3101 22.1015 21.5551 22.8582 20.5931 23.3738C19.6311 23.8893 18.6769 24.164 16.0455 24.164H11.4252C11.3435 24.164 11.2773 24.0978 11.2773 24.0161C11.2773 23.9769 11.2929 23.9394 11.3205 23.9116Z" fill="#F6C33B"/>
<path fill-rule="evenodd" clip-rule="evenodd" d="M0.252592 11.8442L1.99768 13.5931C2.13603 13.7317 2.21372 13.9196 2.21372 14.1154V16.256C2.21372 18.2339 2.41921 18.9511 2.80507 19.6741C3.19094 20.3972 3.75718 20.9647 4.47869 21.3513C5.2002 21.7381 5.91587 21.944 7.88943 21.944H10.7121C10.7938 21.944 10.86 22.0102 10.86 22.0919C10.86 22.1311 10.8444 22.1687 10.8168 22.1963L9.07156 23.9454C8.93283 24.0844 8.7445 24.1625 8.5481 24.1625H7.56762C4.93619 24.1625 3.98197 23.8879 3.01997 23.3723C2.05795 22.8567 1.30296 22.1001 0.788475 21.136C0.273986 20.172 0 19.2156 0 16.5786V11.9487C0 11.867 0.0662168 11.8008 0.1479 11.8008C0.18718 11.8008 0.224846 11.8164 0.252592 11.8442Z" fill="#7387EF"/>
<path fill-rule="evenodd" clip-rule="evenodd" d="M12.2926 0.752368L10.5473 2.50133C10.4086 2.64036 10.2204 2.71849 10.0239 2.71849H7.88943C5.91587 2.71849 5.20019 2.92442 4.47869 3.31112C3.75718 3.69782 3.19094 4.26528 2.80507 4.98835C2.41921 5.71141 2.21372 6.42862 2.21372 8.40644V11.2348C2.21372 11.3165 2.1475 11.3828 2.06581 11.3828C2.02654 11.3828 1.98887 11.3671 1.96113 11.3394L0.216031 9.59046C0.0776926 9.45183 0 9.26397 0 9.06812V8.08394C0 5.44684 0.273986 4.49057 0.788475 3.52648C1.30296 2.5624 2.05795 1.80577 3.01997 1.29018C3.98197 0.774577 4.93619 0.5 7.56762 0.5H12.1879C12.2696 0.5 12.3358 0.566217 12.3358 0.6479C12.3358 0.687069 12.3203 0.72464 12.2926 0.752368Z" fill="#D776EB"/>
<path fill-rule="evenodd" clip-rule="evenodd" d="M19.6739 9.13606L17.2943 6.85683C17.1368 6.69909 16.9527 6.58442 16.7565 6.51284C16.5942 6.45136 16.4184 6.4177 16.2346 6.4177H9.2104C9.12872 6.4177 9.0625 6.35149 9.0625 6.2698C9.0625 6.23062 9.07806 6.19302 9.10575 6.1653L10.8526 4.41615C10.9913 4.27726 11.1795 4.19922 11.3759 4.19922H16.9725C18.6026 4.19922 19.9241 5.52355 19.9241 7.1572V9.02924C19.9241 9.11092 19.8579 9.17714 19.7762 9.17714C19.7381 9.17714 19.7015 9.16242 19.6739 9.13606Z" fill="#E44E31"/>
<path fill-rule="evenodd" clip-rule="evenodd" d="M14.9979 20.2164L17.2729 17.8308C17.4304 17.6731 17.5448 17.4886 17.6162 17.2919C17.6776 17.1293 17.7111 16.953 17.7111 16.7689V9.72993C17.7111 9.64824 17.7773 9.58203 17.859 9.58203C17.8983 9.58203 17.936 9.59767 17.9638 9.62551L19.709 11.376C19.8473 11.5146 19.9248 11.7024 19.9248 11.8981V17.5084C19.9248 19.1421 18.6034 20.4664 16.9732 20.4664H15.105C15.0233 20.4664 14.957 20.4002 14.957 20.3185C14.957 20.2805 14.9716 20.2439 14.9979 20.2164Z" fill="#F6C33B"/>
<path fill-rule="evenodd" clip-rule="evenodd" d="M3.94161 15.5294L6.32131 17.8086C6.47871 17.9663 6.66283 18.081 6.85906 18.1526C7.02131 18.214 7.1972 18.2477 7.38095 18.2477H14.4051C14.4868 18.2477 14.5531 18.3139 14.5531 18.3956C14.5531 18.4348 14.5375 18.4723 14.5098 18.5001L12.7629 20.2492C12.6242 20.3881 12.436 20.4662 12.2396 20.4662H6.64303C5.01289 20.4662 3.69141 19.1418 3.69141 17.5082V15.6361C3.69141 15.5545 3.75763 15.4883 3.83931 15.4883C3.87744 15.4883 3.91408 15.503 3.94161 15.5294Z" fill="#7387EF"/>
<path fill-rule="evenodd" clip-rule="evenodd" d="M8.61837 4.44918L6.3433 6.83478C6.1859 6.99252 6.07149 7.17703 6.00006 7.37369C5.93871 7.53629 5.90513 7.71257 5.90513 7.8967V14.9357C5.90513 15.0174 5.83891 15.0835 5.75723 15.0835C5.71793 15.0835 5.68024 15.0679 5.65249 15.0401L3.90722 13.2896C3.76901 13.151 3.69141 12.9632 3.69141 12.7674V7.1572C3.69141 5.52355 5.01289 4.19922 6.64303 4.19922H8.51134C8.59301 4.19922 8.65923 4.26543 8.65923 4.34712C8.65923 4.38513 8.64459 4.42168 8.61837 4.44918Z" fill="#D776EB"/>
</g>
<defs>
<clipPath id="clip0_19464_449420">
<rect width="24" height="24" fill="white" transform="translate(0 0.5)"/>
</clipPath>
</defs>
</svg>
