<svg width="24" height="25" viewBox="0 0 24 25" fill="none" xmlns="http://www.w3.org/2000/svg">
<g clip-path="url(#clip0_19464_498932)">
<path d="M12 24.5C18.6274 24.5 24 19.1274 24 12.5C24 5.87258 18.6274 0.5 12 0.5C5.37258 0.5 0 5.87258 0 12.5C0 19.1274 5.37258 24.5 12 24.5Z" fill="#192D41"/>
<path fill-rule="evenodd" clip-rule="evenodd" d="M14.6392 3.94295C16.6749 4.60152 18.1495 5.79624 19.0293 7.49977C19.6284 8.65965 19.836 9.46444 19.8934 10.848C19.9741 12.794 19.5269 14.6404 18.4783 16.6903C17.7829 18.0498 17.0084 19.1213 15.8548 20.3197C14.8957 21.3162 14.6412 21.4693 14.3797 21.2078C14.1509 20.979 14.2915 20.7239 15.1522 19.806C17.108 17.7197 18.35 15.4645 18.8609 13.0719C19.078 12.0554 19.0592 10.2557 18.8222 9.35204C18.2193 7.05415 16.4837 5.35182 14.0958 4.71614C13.1084 4.45335 11.4463 4.45668 10.4343 4.72356C7.88886 5.39463 6.08034 7.15117 5.32095 9.6897C5.10458 10.4129 5.07113 10.6897 5.06872 11.7746C5.06316 14.3049 5.82449 16.2618 7.49476 18.0101C8.12608 18.6708 9.50705 19.7176 9.61065 19.6139C9.63456 19.5901 9.54773 19.4313 9.41782 19.261C9.288 19.0906 9.04438 18.6605 8.87647 18.305C8.62054 17.7632 8.57096 17.5513 8.56957 16.9935C8.56818 16.452 8.53204 16.2882 8.37525 16.1132C7.45473 15.0856 7.23808 13.355 7.86088 12.0038C8.15963 11.3557 8.16018 11.352 8.0033 10.9849C7.77007 10.4388 7.7924 9.5938 8.05454 9.05236C8.51388 8.10348 9.76373 7.21464 11.0821 6.8994C11.8193 6.72306 13.4574 6.69332 14.0807 6.84492C14.3086 6.90033 14.5101 6.93072 14.5283 6.91247C14.5466 6.89421 14.5135 6.78969 14.4549 6.68016C14.3734 6.52782 14.3752 6.44859 14.4625 6.34342C14.6936 6.06487 14.9507 6.23713 15.308 6.90978C15.4975 7.26654 15.6539 7.62848 15.6555 7.7141C15.6599 7.94373 14.2914 8.68365 14.0926 8.5592C13.8358 8.39824 13.8592 8.09431 14.1397 7.94725C14.3911 7.81557 14.3886 7.8139 13.7903 7.70966C11.3102 7.27784 8.70366 8.49387 8.71005 10.0798C8.71237 10.6513 8.79623 10.6882 9.31302 10.3455C11.311 9.02039 15.0847 9.27346 16.0255 10.7957C16.2856 11.2167 16.2762 11.8405 16.0034 12.2474C15.1496 13.5207 11.7546 13.7711 9.66282 12.7152C9.36129 12.5629 9.05986 12.3724 8.99295 12.2919C8.92605 12.2113 8.84136 12.1453 8.80485 12.1453C8.69717 12.1453 8.54446 12.5486 8.42798 13.1407C8.29112 13.8362 8.41334 14.4944 8.80725 15.1838L9.08738 15.674L9.44793 15.3654C10.4277 14.5268 12.0865 14.1275 13.62 14.361C14.6061 14.5111 15.1127 14.6979 15.5507 15.0727C16.2823 15.699 16.276 16.5346 15.5346 17.218C14.9642 17.7437 14.2396 17.9918 13.1102 18.048C11.9746 18.1045 11.1014 17.9375 10.162 17.4843C9.79644 17.308 9.47916 17.1818 9.45702 17.2038C9.43496 17.226 9.48658 17.4624 9.57183 17.7294C9.77356 18.3612 10.4726 19.2801 11.3462 20.0619C11.8528 20.5154 12.0446 20.749 12.0446 20.9123C12.0446 21.457 11.2098 21.3832 9.74159 20.7087C6.85556 19.3828 4.78035 16.5887 4.25745 13.3246C4.11224 12.4184 4.19193 10.3669 4.40237 9.59704C5.0046 7.3933 6.55357 5.49035 8.56966 4.47744C9.88772 3.81526 10.8519 3.61687 12.5542 3.65736C13.6636 3.68377 13.9656 3.7251 14.6392 3.94295ZM9.45915 11.3466C9.67515 11.0863 10.348 10.7542 11.0345 10.569C11.9437 10.3237 13.6203 10.3561 14.2995 10.6321C14.8714 10.8646 15.3805 11.2696 15.3805 11.4924C15.3805 11.5875 15.2534 11.7724 15.0981 11.9031C14.0946 12.7475 11.0976 12.6457 9.69831 11.7197C9.40207 11.5236 9.36287 11.4625 9.45915 11.3466ZM9.82063 16.2222C9.82063 16.0125 10.9537 15.4306 11.619 15.2987C13.1311 14.9989 15.1041 15.4241 15.1785 16.0658C15.2751 16.8998 13.1406 17.4368 11.4556 17.0024C10.8838 16.8549 9.82063 16.3476 9.82063 16.2222Z" fill="#F1AE0E"/>
</g>
<defs>
<clipPath id="clip0_19464_498932">
<rect width="24" height="24" fill="white" transform="translate(0 0.5)"/>
</clipPath>
</defs>
</svg>
