<svg width="24" height="25" viewBox="0 0 24 25" fill="none" xmlns="http://www.w3.org/2000/svg">
<g clip-path="url(#clip0_19464_287632)">
<path d="M13.5284 0.597747C11.1743 0.29544 8.78347 0.698014 6.65814 1.75456C4.53285 2.81112 2.76858 4.47416 1.58847 6.53343C0.408364 8.59273 -0.134582 10.9557 0.0282959 13.3235C0.191173 15.6913 1.05256 17.9578 2.50352 19.8359C3.95447 21.7143 5.92984 23.1201 8.1798 23.8757C10.4297 24.6313 12.8532 24.7026 15.1437 24.0808C17.4343 23.4591 19.4891 22.172 21.0481 20.3825C22.6072 18.5928 23.6004 16.3812 23.9025 14.0269C24.3074 10.8705 23.4419 7.68243 21.4965 5.16402C19.5509 2.6456 16.6849 1.00309 13.5284 0.597747Z" fill="#FF6C37"/>
<path d="M8.677 13.2592C8.68167 13.2687 8.68954 13.2763 8.69914 13.2806C8.70874 13.2851 8.7196 13.286 8.7298 13.2832L10.6498 12.8692L9.8422 12.0508L8.6914 13.2016C8.68233 13.2077 8.67589 13.217 8.67318 13.2276C8.67056 13.2383 8.67191 13.2495 8.677 13.2592Z" fill="white"/>
<path d="M17.6663 5.01563C17.3987 5.0159 17.1347 5.07619 16.8934 5.19203C16.6522 5.30789 16.4401 5.47636 16.2727 5.68505C16.1052 5.89374 15.9867 6.13734 15.9259 6.39789C15.8649 6.65845 15.8633 6.92934 15.921 7.19062C15.9788 7.4519 16.0943 7.69691 16.2591 7.90761C16.4241 8.1183 16.6342 8.2893 16.8739 8.4081C17.1138 8.5269 17.3771 8.59035 17.6447 8.59388C17.9122 8.59741 18.177 8.54086 18.42 8.42843L17.2031 7.21163C17.1891 7.19769 17.1781 7.18115 17.1706 7.16292C17.1629 7.1447 17.159 7.12516 17.159 7.10543C17.159 7.0857 17.1629 7.06615 17.1706 7.04793C17.1781 7.02972 17.1891 7.01316 17.2031 6.99923L18.7931 5.41043C18.4738 5.15369 18.076 5.01432 17.6663 5.01563Z" fill="white"/>
<path d="M19.0099 5.61719L17.5195 7.10159L18.6883 8.27039C18.7744 8.20994 18.8547 8.14161 18.9283 8.06639C19.2486 7.74389 19.4351 7.31213 19.4503 6.85782C19.4653 6.40351 19.3081 5.9603 19.0099 5.61719Z" fill="white"/>
<path d="M16.03 8.35549H16.0036C15.9727 8.35518 15.9417 8.35803 15.9113 8.36389H15.9005C15.867 8.37109 15.8342 8.38069 15.802 8.39269L15.7769 8.40469C15.7528 8.41474 15.7295 8.42674 15.7073 8.44069L15.6809 8.45749C15.6519 8.47751 15.6245 8.50001 15.5993 8.52469L11.1797 12.9454L11.7269 13.4926L16.4069 9.38509C16.4334 9.36183 16.4574 9.33611 16.4789 9.30829L16.4993 9.28189C16.5153 9.25841 16.5297 9.23396 16.5425 9.20869C16.5496 9.19429 16.5556 9.17989 16.5616 9.16549C16.5697 9.14629 16.5766 9.12663 16.582 9.10669C16.582 9.09229 16.5905 9.07789 16.594 9.06349C16.6 9.03371 16.6041 9.00371 16.606 8.97349V8.93389C16.606 8.91229 16.606 8.89069 16.606 8.86909C16.606 8.84749 16.606 8.84029 16.6 8.82589C16.5778 8.71263 16.5226 8.60845 16.4412 8.52663C16.3599 8.44489 16.2561 8.38901 16.1429 8.36629H16.12C16.0904 8.36051 16.0603 8.35691 16.03 8.35549Z" fill="white"/>
<path d="M10.0469 11.8388L10.9541 12.7412L15.3857 8.30956C15.53 8.16856 15.7179 8.08096 15.9184 8.06116C15.1349 7.46116 14.2804 7.61836 10.0469 11.8388Z" fill="white"/>
<path d="M16.6558 9.55859L16.6018 9.61139L11.9219 13.7178L12.7175 14.5122C14.6902 12.6462 16.4411 10.869 16.6558 9.55859Z" fill="white"/>
<path d="M4.98354 19.179C4.98597 19.1875 4.99097 19.1951 4.99783 19.2007C5.0047 19.2062 5.01311 19.2096 5.02194 19.2101L7.06193 19.3505L5.91834 18.207L4.99314 19.131C4.98714 19.1373 4.98306 19.1451 4.98135 19.1535C4.97965 19.1621 4.98042 19.1709 4.98354 19.179Z" fill="white"/>
<path d="M6.12891 17.9934L7.33491 19.1994C7.34922 19.2147 7.36838 19.2246 7.38913 19.2275C7.40989 19.2303 7.431 19.2258 7.44891 19.2149C7.4676 19.2057 7.48249 19.1902 7.49103 19.1713C7.49959 19.1521 7.50123 19.1307 7.49571 19.1106L7.29291 18.2442C7.27978 18.188 7.28573 18.1291 7.30987 18.0767C7.33399 18.0244 7.3749 17.9816 7.42611 17.9549C9.54049 16.8954 11.2457 15.8046 12.4973 14.7149L11.6573 13.875L9.85729 14.2626L6.12891 17.9934Z" fill="white"/>
<path d="M11.4025 13.6192L10.9513 13.168L10.3273 13.7908C10.3228 13.7962 10.3203 13.803 10.3203 13.81C10.3203 13.817 10.3228 13.8238 10.3273 13.8292C10.3301 13.8355 10.3353 13.8407 10.3417 13.8436C10.3481 13.8464 10.3553 13.8469 10.3621 13.8448L11.4025 13.6192Z" fill="white"/>
<path d="M19.0546 6.58436C19.0485 6.56547 19.0383 6.54812 19.0249 6.53347C19.0115 6.51882 18.9952 6.50721 18.9769 6.49944C18.9586 6.49165 18.9389 6.48786 18.919 6.48832C18.8992 6.48879 18.8796 6.49351 18.8618 6.50215C18.8439 6.51078 18.828 6.52316 18.8153 6.53841C18.8026 6.55369 18.7933 6.5715 18.7881 6.59065C18.7828 6.6098 18.7817 6.62986 18.7849 6.64947C18.788 6.66909 18.7952 6.6878 18.8062 6.70436C18.8421 6.77653 18.8563 6.85753 18.8471 6.93758C18.8381 7.01764 18.8058 7.09336 18.7546 7.15556C18.7379 7.17588 18.7271 7.20057 18.7238 7.22675C18.7204 7.25291 18.7246 7.27951 18.7358 7.3034C18.7469 7.3273 18.7648 7.34752 18.787 7.36171C18.8092 7.3759 18.8351 7.38348 18.8614 7.38356C18.8819 7.38334 18.902 7.37872 18.9204 7.37003C18.9388 7.36132 18.9551 7.34875 18.9682 7.33316C19.0532 7.22989 19.1065 7.10431 19.1219 6.97149C19.1371 6.83868 19.1138 6.70425 19.0546 6.58436Z" fill="#FF6C37"/>
</g>
<defs>
<clipPath id="clip0_19464_287632">
<rect width="24" height="24" fill="white" transform="translate(0 0.5)"/>
</clipPath>
</defs>
</svg>
