<svg width="24" height="25" viewBox="0 0 24 25" fill="none" xmlns="http://www.w3.org/2000/svg">
<path d="M15.9135 1.1705C14.6715 0.7355 13.338 0.5 11.9475 0.5C10.863 0.5 9.8115 0.644 8.8125 0.914C5.6505 1.7675 2.49 4.3595 1.6485 7.613C1.2735 9.0605 1.323 10.5665 2.0685 11.888C2.2065 12.134 2.361 12.3695 2.532 12.5945C2.727 12.8555 2.9445 13.1015 3.18 13.328C3.519 13.6565 3.897 13.9475 4.311 14.1965C5.7375 15.0515 7.413 15.302 9.027 14.897C10.9755 14.411 12.54 13.0355 13.2855 11.213H10.0425C9.9 11.213 9.786 11.0975 9.786 10.955V8.804C9.786 8.6615 9.9 8.546 10.0425 8.546H17.7C17.8425 8.546 17.958 8.6615 17.958 8.804V16.91C17.958 17.0525 17.8425 17.168 17.7 17.168H15.5505C15.408 17.168 15.2925 17.0525 15.2925 16.91V13.181C14.1135 15.3035 12.102 16.8785 9.672 17.4845C8.9535 17.6645 8.2245 17.753 7.5015 17.753C5.9085 17.753 4.3395 17.3225 2.9385 16.481C2.3355 16.1195 1.785 15.6935 1.2945 15.2135C1.23 15.152 1.167 15.0875 1.1055 15.023C0.69 14.5925 0.3195 14.123 0 13.6175C0.564 19.721 5.697 24.5 11.9475 24.5C18.576 24.5 23.9475 19.127 23.9475 12.5C23.9475 7.262 20.592 2.807 15.9135 1.1705Z" fill="#417E62"/>
</svg>
